<svg xmlns="http://www.w3.org/2000/svg" xml:space="preserve" viewBox="0 0 716 538"><path d="M354.36 489.07c-12.4-.42-24.61-2.25-36.49-5.81-22.82-6.83-43.72-19.34-61.22-35.36-9.29-8.49-17.63-17.91-25.12-28-19.82-26.7-32.91-57.91-39.89-90.29-6-27.84-7.01-56.46-4.12-84.72 3.45-33.7 14.08-67.2 31.13-96.47 6.64-11.4 14.26-22.22 22.93-32.16 16.06-18.41 35.48-33.75 57.74-43.89 11.21-5.11 23.1-8.74 35.25-10.84 21.16-3.65 43.17-2.2 63.7 3.97 22.51 6.77 43.29 19.12 60.6 34.96 18.62 17.04 33.87 37.73 45.11 60.33 3.21 6.47 6.1 13.07 8.77 19.79 10.07 25.31 16.04 55.03 17.04 82.25.76 20.72-.52 41.49-4.52 61.84-3.98 20.29-10.34 40.02-19.11 58.75-13.42 28.67-32.86 54.11-57.81 73.63-13.66 10.68-29.31 19.36-45.76 24.8-10.67 3.52-21.62 5.62-32.77 6.77-5.13.49-10.3.59-15.46.45m3.58-334.98c50.35 37.53 100.66 75.12 151.03 112.65.62.46.7-.05.64-.82-.3-3.27-.39-6.6-.61-9.89-1.82-25.63-7.68-51.23-17.92-74.83-4.35-10.03-9.39-19.85-15.29-29.07-6.19-9.68-13.24-18.72-20.96-27.21-7.94-8.71-17.12-16.4-26.88-23-8.07-5.46-16.87-10.15-25.97-13.57-8.4-3.15-17.09-5.65-25.97-6.97-4.71-.7-10.13-1.32-14.84-1.38-10.58-.13-21.27.78-31.54 3.41-19.29 4.93-37.1 14.02-52.57 26.63-12.44 10.14-23.22 22.14-32.42 35.29-14.2 20.29-24.32 43.48-30.55 67.41-4.37 16.81-6.78 33.99-7.61 51.33-.05 1.02 0 2.16.05 3.17zM347.56 468.2c6.99.56 14.01.62 21.03-.01 23.16-2.21 45.23-11.05 64.01-24.79 20.71-15.15 37-35.17 49.42-57.53l-124.09-92.29c-3.03 2.28-6.1 4.51-9.14 6.78-35.25 26.22-70.42 52.56-105.75 78.67-3.08 2.27-6.12 4.59-9.15 6.91 11.03 19.9 25.36 38.32 43.16 52.64 15.07 12.13 32.51 21.61 51.33 26.34 6.32 1.6 12.68 2.68 19.18 3.28m149.66-120.37c.29.21.59.45.89.67 1.95-5.54 3.38-11.31 4.68-17.03 1.25-5.55 2.1-11.15 2.98-16.77L357.92 204.65c-48.31 36.11-96.68 72.17-145.17 108.03-.85.63-1.67 1.29-2.52 1.92 1.42 11.13 3.78 22.25 7.26 32.95.09.3.33.57.49.84l139.95-104.56c46.44 34.64 92.93 69.23 139.29 104" style="fill:#14120e"/></svg>