<svg xmlns="http://www.w3.org/2000/svg" xml:space="preserve" width="253" height="129" viewBox="0 0 253 129"><path d="M56.707 29.416c.714 3.69-1.22 6.755-2.827 9.73-1.785 2.768-4.731 5.147-8.272 4.791-7.946-.119-15.712-1.339-22.914-3.512-.327-.089-.654-.298-.833-.595-.149-.417.06-.804.357-1.071 6.577-5.327 14.403-7.796 22.14-10.386 2.886-.833 5.952-1.726 9.195-1.309 1.338.179 2.677 1.102 3.154 2.352m27.109-15.771c3.69 3.035 7.023 7.172 5.892 12.171-1.845 7.38-9.879 11.308-16.277 13.807-3.482 1.161-6.993 2.352-10.802 2.709-.238-.03-.625.029-.685-.328l.089-.416c5.416-6.101 9.522-12.944 13.124-19.878 1.666-3.125 3.214-6.338 4.642-9.493.208-.238.417-.357.655-.446 1.338.118 2.291 1.16 3.362 1.874M31.888 5.789l-.119.446c-7.826 8.897-12.974 19.223-17.854 29.489-.952.893-1.875-.298-2.738-.685-4.345-2.856-8.273-7.469-7.142-12.944C5.85 14.954 13.2 11.145 19.331 8.557c3.63-1.369 7.41-2.47 11.397-3.095.417-.001.952-.06 1.16.327m38.835 1.428c.446.238.982.327 1.25.773.238.506-.238.833-.506 1.161-6.16 4.82-13.212 7.499-20.414 9.85-3.661.893-7.351 2.5-11.427 1.607a3.8 3.8 0 0 1-2.351-1.786c-1.012-2.797.357-5.713 1.547-8.153 1.577-3.065 4.375-6.666 8.243-6.725 8.332-.06 16.188 1.19 23.658 3.273m10.296.238c6.309 3.452 13.451 9.522 12.707 17.616-.863 7.499-7.856 12.736-14.105 15.891-18.242 8.719-43.863 8.986-62.7 1.369C10.552 39.683 3.41 35.13.731 28.285c-2.053-5.624.446-11.486 4.643-15.384C14.152 4.926 25.341 2.189 36.858.611c12.499-1.518 25.651-.179 36.84 3.66 2.5.923 4.97 1.935 7.321 3.184" style="stroke:none;stroke-width:1;stroke-dasharray:none;stroke-linecap:butt;stroke-dashoffset:0;stroke-linejoin:miter;stroke-miterlimit:4;fill:#003984;fill-rule:evenodd;opacity:1" transform="translate(.066 .046)scale(2.69)"/></svg>