<?xml version="1.0" encoding="UTF-8" standalone="no"?>
<!-- Created by potrace 1.10, written by Peter Selinger 2001-2011 -->
<!-- Created with Inkscape (http://www.inkscape.org/) -->

<svg
   xmlns:dc="http://purl.org/dc/elements/1.1/"
   xmlns:cc="http://creativecommons.org/ns#"
   xmlns:rdf="http://www.w3.org/1999/02/22-rdf-syntax-ns#"
   xmlns:svg="http://www.w3.org/2000/svg"
   xmlns="http://www.w3.org/2000/svg"
   version="1.0"
   width="410.00137"
   height="149.84697"
   viewBox="0 0 328.0011 119.87758"
   id="svg2">
  <defs
     id="defs40" />
  <metadata
     id="metadata4">
    <rdf:RDF>
      <cc:Work
         rdf:about="">
        <dc:format>image/svg+xml</dc:format>
        <dc:type
           rdf:resource="http://purl.org/dc/dcmitype/StillImage" />
        <dc:title></dc:title>
      </cc:Work>
    </rdf:RDF>
  </metadata>
  <g
     transform="matrix(0.20581439,0,0,0.20269512,-3.1799601,-1.7493047)"
     id="text3834"
     style="font-size:114.53143311px;font-style:normal;font-variant:normal;font-weight:bold;font-stretch:normal;text-align:start;line-height:125%;letter-spacing:0px;word-spacing:0px;writing-mode:lr-tb;text-anchor:start;fill:#512f1a;fill-opacity:1;stroke:#512f1a;stroke-width:2.4000001;stroke-miterlimit:4;stroke-opacity:1;font-family:Gill Sans MT;-inkscape-font-specification:Gill Sans MT Bold">
    <path
       d="m 392.84375,618.96875 c -16.81178,10e-5 -30.41085,4.96293 -40.8125,14.90625 -10.40169,9.94349 -15.59375,21.5705 -15.59375,34.84375 0,13.50459 5.21537,25.16409 15.6875,34.96875 10.47208,9.80467 24.04784,14.6875 40.71875,14.6875 16.48294,0 29.98083,-4.93032 40.5,-14.78125 10.51897,-9.85089 15.78112,-21.46292 15.78125,-34.875 -1.3e-4,-13.227 -5.18442,-24.84588 -15.5625,-34.8125 -10.3783,-9.96646 -23.95405,-14.9374 -40.71875,-14.9375 z m 389.96875,0 c -16.8118,10e-5 -30.41085,4.96293 -40.8125,14.90625 -10.40169,9.94349 -15.625,21.5705 -15.625,34.84375 0,13.50459 5.24662,25.16409 15.71875,34.96875 10.47208,9.80467 24.04784,14.6875 40.71875,14.6875 16.48294,0 29.98083,-4.93032 40.5,-14.78125 10.51897,-9.85089 15.78112,-21.46292 15.78125,-34.875 -1.3e-4,-13.227 -5.18442,-24.84588 -15.5625,-34.8125 -10.3783,-9.96646 -23.95405,-14.9374 -40.71875,-14.9375 z m 386.7813,0 c -17.6102,10e-5 -31.8631,4.85041 -42.7813,14.5625 -10.9183,9.71224 -16.375,21.54803 -16.375,35.46875 0,13.92082 5.1765,25.62096 15.5313,35.125 10.3546,9.50406 24.2495,14.25 41.7187,14.25 13.4775,0 26.3838,-3.19646 38.6875,-9.625 l 0,-21.15625 c -9.2982,4.48613 -16.3041,7.36944 -21,8.6875 -4.6961,1.3181 -9.5846,1.96877 -14.6562,1.96875 -10.2374,2e-5 -18.6367,-2.77892 -25.1876,-8.375 -6.5509,-5.59603 -9.8125,-12.71025 -9.8124,-21.3125 -1e-4,-8.55591 3.3238,-15.59825 9.9687,-21.125 6.6448,-5.52661 15.1841,-8.28116 25.6563,-8.28125 10.6598,9e-5 21.9782,3.29279 33.9062,9.90625 l 0,-21.5625 c -9.7209,-5.68847 -21.6152,-8.53115 -35.6562,-8.53125 z m 373.625,0 c -17.6101,10e-5 -31.8944,4.85041 -42.8126,14.5625 -10.9183,9.71224 -16.375,21.54803 -16.375,35.46875 0,13.92082 5.1765,25.62096 15.5313,35.125 10.3546,9.50406 24.2807,14.25 41.75,14.25 13.4775,0 26.3527,-3.19646 38.6563,-9.625 l 0,-21.15625 c -9.2983,4.48613 -16.2728,7.36944 -20.9688,8.6875 -4.6961,1.3181 -9.5845,1.96877 -14.6562,1.96875 -10.2374,2e-5 -18.6366,-2.77892 -25.1876,-8.375 -6.5509,-5.59603 -9.8124,-12.71025 -9.8124,-21.3125 0,-8.55591 3.2925,-15.59825 9.9374,-21.125 6.6448,-5.52661 15.2154,-8.28116 25.6876,-8.28125 10.6599,9e-5 21.947,3.29279 33.875,9.90625 l 0,-21.5625 c -9.721,-5.68847 -21.584,-8.53115 -35.625,-8.53125 z m -1410.2188,1.25 0,96.90625 24.5,0 0,-60.5 26.5625,30.40625 3.75,0 26.53125,-30.40625 0,60.5 24.53125,0 0,-96.90625 -21.34375,0 -31.625,35.9375 -31.5625,-35.9375 -21.34375,0 z m 406.9375,0 0,17.75 35.625,0 0,79.15625 24.53125,0 0,-79.15625 35.625,0 0,-17.75 -95.78125,0 z m 396.9375,0 0,96.90625 24.5,0 0,-39.34375 7.03125,0 c 3.24021,4e-5 6.28386,1.30012 9.125,3.84375 2.84104,2.54369 6.25056,8.27782 10.21875,17.25 3.96807,8.97221 6.74704,15.05886 8.34375,18.25 l 27.00005,0 c -4.1326,-8.60221 -8.4374,-17.75656 -12.875,-27.46875 -4.4379,-9.71214 -9.1473,-15.63879 -14.12505,-17.8125 11.27035,-5.13354 16.90615,-13.06654 16.90625,-23.75 -10e-5,-7.72341 -2.9736,-14.28447 -8.9375,-19.71875 -5.96402,-5.4341 -13.71715,-8.15615 -23.25,-8.15625 l -43.9375,0 z m 358.0938,0 38.8124,51.625 0,45.28125 24.5313,0 0,-45.28125 38.8125,-51.625 -29.5938,0 -21.4687,30.46875 -21.3437,-30.46875 -29.75,0 z m 384.625,0 0,96.90625 75,0 0,-17.75 -50.5,0 0,-79.15625 -24.5,0 z m 169.0312,0 0,96.90625 72.5625,0 0,-17.75 -48.0313,0 0,-23.3125 44.875,0 0,-17.75 -44.875,0 0,-20.34375 47.0626,0 0,-17.75 -71.5938,0 z m -887.25,17.75 12.40625,0 c 9.34501,9e-5 13.99994,3.66156 14,10.96875 -6e-5,3.56119 -1.2066,6.2995 -3.625,8.21875 -2.4185,1.91936 -5.68007,2.87506 -9.8125,2.875 l -12.96875,0 0,-22.0625 z m -568.53125,1.1875 c 9.29804,9e-5 16.78649,2.714 22.46875,8.125 5.6821,5.41114 8.53116,12.55785 8.53125,21.4375 -9e-5,8.83349 -2.84915,15.97209 -8.53125,21.40625 -5.68226,5.43422 -13.17071,8.12502 -22.46875,8.125 -9.34512,2e-5 -16.85689,-2.69078 -22.5625,-8.125 -5.70569,-5.43416 -8.56254,-12.57276 -8.5625,-21.40625 -4e-5,-8.87965 2.85681,-16.02636 8.5625,-21.4375 5.70561,-5.411 13.21738,-8.12491 22.5625,-8.125 z m 389.96875,0 c 9.29804,9e-5 16.78649,2.714 22.46875,8.125 5.68208,5.41114 8.53116,12.55785 8.53125,21.4375 -9e-5,8.83349 -2.84917,15.97209 -8.53125,21.40625 -5.68226,5.43422 -13.17071,8.12502 -22.46875,8.125 -9.34514,2e-5 -16.88814,-2.69078 -22.59375,-8.125 -5.7057,-5.43416 -8.53129,-12.57276 -8.53125,-21.40625 -4e-5,-8.87965 2.82555,-16.02636 8.53125,-21.4375 5.70561,-5.411 13.24861,-8.12491 22.59375,-8.125 z"
       transform="scale(0.79391457,0.80613209)"
       id="path3854"
       style="stroke-width:3" />
  </g>
  <g
     transform="matrix(0.02042488,0,0,-0.02042488,-3.1799601,120.8)"
     id="g6"
     style="fill:#000000;stroke:none">
    <path
       d="M 694.5,35.1875 C 676.01562,35.21875 657.8125,35.625 648.125,36.375 575.5,42 520.625,62 485.25,95.5 l -10.875,10.375 -24.375,1.5 c -78.75,4.875 -126.875,18.125 -159.25,43.875 -26.875,21.375 -37.25,50 -28.625,79.125 2.875,9.75 5.875,14.875 13.625,23.25 16.875,18.25 41.25,26.25 76,24.75 30.125,-1.25 51.625,-9.125 67,-24.625 7.5,-7.5 13.75,-16.75 12.375,-18.125 -0.375,-0.25 -4.75,0.5 -9.75,1.875 -23.25,6 -52.75,6.625 -66.5,1.375 -16.5,-6.25 -23.125,-15.375 -22.125,-29.875 0.875,-11.5 5,-19.25 16,-29.375 18.875,-17.5 55.875,-31.375 94.25,-35.375 7.75,-0.75 8.625,-0.625 7.875,1.25 -4.375,11.375 -7.75,36.5 -6.625,49.5 3.625,40.625 23.625,69.875 64,93.25 2.125,1.25 2,2 -3.125,13.125 -15,32.875 -36.625,67.25 -60,95.25 -44.625,53.375 -96.5,89 -148,101.5 -34.5,8.5 -70.5,9.125 -99,1.875 -12.5,-3.25 -32.625,-12.875 -42.5,-20.5 -30.125,-23.125 -41.25,-61.25 -26.375,-90.5 9.25,-18.25 33.625,-34.5 59.75,-39.75 14.125,-2.875 39.375,-2 47.25,1.5 11.75,5.375 18,15.625 15,24.75 -4.5,13.875 -20,20.75 -51.125,22.75 -14.5,1 -14.5,1 -2.125,9.875 10.625,7.5 23.375,13.75 36.5,17.5 8.875,2.625 14.75,3.5 29.25,4 28.375,1.125 46.125,-3.5 63.125,-16.25 7.25,-5.375 9.5,-8 13.125,-15 3.75,-7.5 4.25,-9.75 4.25,-17.5 C 343.875,347 308.375,322 249.5,314.25 c -20.5,-2.75 -58.25,-2.75 -77,0 -40.125,5.625 -72.75,19.75 -96.125,41.5 -23.25,21.5 -34,46.375 -32.25,74.25 3.75,56.125 46,94.875 124.75,114.25 21.75,5.25 37.5,7.125 68.75,7.875 50.375,1.25 91.375,-4.75 136.5,-19.75 67,-22.375 132.875,-72.5 178,-135.625 C 564.75,379.125 586,346 599,323.625 l 10.125,-17.375 7.75,0 c 4.25,0 13,-0.875 19.5,-2 48,-8.25 81.875,-34.875 89.375,-70.5 4.875,-23.375 -3.125,-46.125 -23.625,-66.75 l -11,-11.125 4.375,-6.375 C 714.5,121.875 752,83.875 788.375,55.125 796.75,48.5 803.25,42.75 802.75,42.25 c -1,-0.875 -35,-4.375 -60.25,-6 -10.75,-0.75 -29.51562,-1.09375 -48,-1.0625 z M 687.125,64 c 3.5,-0.125 6.75,0.25 7.125,0.875 0.375,0.5 -4.5,4.875 -10.875,9.625 -14,10.375 -32.75,26.375 -47.875,40.875 L 624.25,126 610,122.375 c -7.875,-2 -23.375,-5 -34.375,-6.875 -11,-1.75 -22.5,-3.5 -25.625,-4 l -5.625,-1 10.375,-8.25 c 11.25,-8.875 31.625,-20 45.875,-25.125 12,-4.25 34.875,-9.25 50,-10.875 11.375,-1.125 17.125,-1.5 36.5,-2.25 z m -151.0625,78.5 c 7.21875,0.0469 16.4375,0.6875 25.4375,1.875 12.125,1.625 35.25,6.875 36.75,8.5 0.25,0.25 -4.375,6.375 -10.375,13.5 -13.5,16.125 -28.125,35.875 -41.5,55.875 L 536.125,237.625 531,234.75 c -18,-10.125 -24.875,-36 -17.875,-66.75 1.75,-7.75 7,-20.75 9.5,-23.875 1,-1.125 6.21875,-1.67188 13.4375,-1.625 z m 772.5625,23.75 -41.75,0.125 -40.5,57.375 c -22.25,31.625 -40.875,57.5 -41.25,57.5 -0.375,0 -3.25,-1.75 -6.25,-3.75 -14.75,-10 -39.125,-10.75 -75.75,-2.25 -80.25,18.625 -151.625,78.25 -194.5,162.75 l -9.5,18.75 -10.875,6.5 c -18.75,11.375 -30.5,14.375 -35.125,9.125 -2,-2 -2.125,-3.125 -1.125,-6 0.75,-1.875 20.125,-32.625 43,-68.375 23,-35.625 43.625,-68.5 45.75,-73 13.75,-27.5 3.25,-46.375 -29.5,-52.75 -21.25,-4.25 -62.375,1 -94.875,12.125 L 807,287.5 l -3.375,-4.125 c -8.5,-10.375 -28.125,-16.125 -43.75,-12.75 -18,3.75 -34.125,14.625 -67.375,45.625 -12,11.125 -25.5,23.375 -30,27.125 -11.75,9.75 -28,17.5 -41.875,19.875 -6.125,1.125 -11.5,2.25 -11.75,2.5 -1.25,1.125 4.375,10.875 8.25,14.25 4.875,4.25 10.5,5.625 20.625,4.625 14,-1.25 38,-15.125 59.625,-34.5 5.75,-5 8.625,-7 7.625,-5.125 -1.25,2.25 -100.25,145.75 -122.75,177.75 l -2.375,3.5 42.5,0 42.375,0 43.5,-62.5 c 38.875,-55.875 43.875,-62.5 46.75,-62.5 6.125,0 22.5,-4.875 30.375,-9 9.125,-4.75 19.5,-14.625 23.25,-22 1.5,-2.875 2.625,-5.375 2.625,-5.625 0,-0.25 -3,0 -6.5,0.625 C 791,367.75 782.5,365 782.5,358 c 0,-3.875 7.25,-17.375 12.75,-23.625 15.875,-18 56,-17.125 56,1.25 0,5.625 -3.25,11.25 -25,42.5 -24.125,34.5 -53.75,79.25 -64.375,96.875 -14.25,23.625 -16.625,30.875 -12.625,38.5 6,11.5 22.25,17.875 45.75,18 20.125,0.125 46.125,-8.375 86.875,-28.5 16.625,-8.125 21.375,-10 22.125,-8.75 6.625,11.875 23.625,24.75 39.375,29.875 13.875,4.625 22.5,5.875 39,5.875 24,0 46,-6 66.375,-18 l 9.375,-5.375 4.75,5.375 c 13,14.875 45.125,20.625 70.375,12.875 11.25,-3.5 18.875,-7.375 31,-15.875 l 9.875,-6.875 2.625,3.625 c 7.375,10.375 19.125,17.75 34.125,21.25 6.625,1.625 11.875,1.875 23.125,1.25 27.125,-1.5 52.125,-10.25 84.625,-29.875 6.875,-4 10.75,-5.75 11.125,-4.875 1.125,3.625 10.75,14.25 16.875,18.875 15.5,11.75 36.125,17.625 61.5,17.625 24.875,0 48.25,-6.5 67.75,-18.75 l 8.125,-5 5.375,6 c 13.75,15.25 45.125,20.5 72.125,12 20,-6.375 35.625,-16.25 54.625,-34.75 7.125,-7 37,-41.125 66.625,-76 29.5,-34.875 56.125,-65.625 59.25,-68.375 8.875,-7.75 13.875,-7.75 9.75,0 -1.125,2.25 -28.5,42.25 -61,89.125 -32.5,46.875 -60,86.625 -61.25,88.5 l -2.25,3.5 42.25,0 42.375,0 43.75,-62.5 c 37.75,-53.875 44.125,-62.5 46.875,-62.5 6.125,-0.125 19.5,-3.875 28.125,-8.125 9.375,-4.5 18.625,-12.5 23.5,-20.25 5.125,-8.375 5.125,-8.875 -0.75,-7.75 -8.625,1.625 -17.625,1.25 -20.625,-0.875 -9.875,-6.875 8.625,-34.5 28.375,-42.25 10.75,-4.125 28,-2.25 34.5,3.75 3.875,3.625 4.25,11.625 0.75,18.125 -1.25,2.375 -10.375,15.875 -20.125,29.875 -38.5,55.25 -69.75,103.625 -74.125,114.75 -3.25,8 -2.875,21 0.75,27.875 5.625,10.625 18.625,17.375 33.75,17.375 16.75,0 49.25,-9.125 70.25,-19.625 18.75,-9.375 32.5,-19.625 49.125,-36.125 8.375,-8.5 15.25,-16 15.25,-16.625 0,-0.75 -2.625,-0.125 -5.875,1.25 -24.875,10.75 -49.125,18.625 -57.875,18.625 -2.5,0 -5.625,-0.75 -6.875,-1.75 -3.25,-2.375 -3,-9.625 0.375,-17.375 1.375,-3.25 20.875,-33.875 43.125,-68 22.25,-34.25 42,-65.25 43.875,-68.75 12.875,-25.625 6,-43.375 -20.25,-51.75 -21.75,-6.875 -61.625,-3.5 -99.375,8.5 l -13.875,4.375 -2.625,-3 c -10.625,-12.375 -30.75,-17.625 -50.875,-13.375 -31.875,6.875 -76.875,42.5 -126,99.875 -28.5,33.375 -73.25,83 -83.125,92.25 -13.5,12.875 -23.125,16.5 -21.5,7.875 0.375,-1.875 29.625,-47 64.875,-100.25 35.375,-53.25 64.625,-97.5 65.25,-98.375 0.75,-1.125 -7.75,-1.5 -40.5,-1.5 l -41.25,0 -3.875,6.25 -3.875,6.25 -4.25,-3.75 C 1582,257 1495.875,275.5 1439.375,314.75 1396.25,344.625 1358.875,388.5 1335,437.125 l -7.5,15.125 -11,6.875 c -25.625,16.125 -38.375,19.375 -43.625,11.375 -1.75,-2.75 -1.75,-3.625 -0.125,-7.75 1,-2.625 30.375,-46.625 65.25,-97.75 l 63.375,-93.125 -39,-0.375 c -30.25,-0.25 -39.5,0.125 -40.625,1.25 -0.75,0.875 -19.875,29.125 -42.375,62.625 -22.5,33.625 -47.5,69.625 -55.625,80 -16,20.5 -41.125,46.25 -52.75,54 -12.75,8.375 -24.625,7 -23.125,-2.625 0.5,-2.5 36.75,-57 99.375,-148.75 54.25,-79.75 99.625,-146.375 100.875,-148.375 l 2.125,-3.375 -41.625,0 z m 100,13.9375 c -4.5156,0 -9.25,0.5625 -14.5,1.6875 -10.375,2.25 -24.5,9.875 -29.75,16 -6,6.875 -9.625,15.5 -9.75,22.375 -0.125,4.75 0.625,6.875 3.625,10.625 6.125,7.75 14,10.875 28.5,11.375 29.125,1.25 48.125,-10 53.75,-31.5 3.875,-14.625 -2.75,-24.75 -18.625,-28.875 -4.4375,-1.125 -8.7344,-1.6875 -13.25,-1.6875 z m -735.4375,8.125 c 0.61133,-0.0859 1.125,0.3125 1.8125,0.8125 1.375,0.875 4.125,3.75 6.125,6.375 5.75,7.125 8.125,14.625 7.25,22.625 C 687,232 674.75,248 660.75,254.5 c -6.875,3.125 -25.25,6.375 -28.75,5.125 -2.125,-0.875 1.25,-7 25.875,-48.375 10.78125,-18.1875 13.47852,-22.67969 15.3125,-22.9375 z m 467.5,123.78125 c 4.1397,-0.0249 7.5234,0.76563 10.0625,2.40625 3.875,2.375 4.625,7.25 2.5,14.875 -3.875,13.125 -16.5,28.25 -28.125,33.625 -4.875,2.25 -7.875,2.625 -19.5,2.5 -8.875,-0.125 -15.875,-0.875 -19.875,-2.125 l -6.125,-2 0.875,5.875 c 1.5,11.125 10.375,24.75 21.25,32.25 l 3.5,2.5 -8.375,13.75 c -10.5,16.875 -18,26.5 -29.125,37 -10.75,10.125 -17.625,14.875 -29.375,20.375 -18.625,8.875 -36.75,8.75 -44.5,-0.125 C 990.5,469.25 990,467.75 990,461.125 c 0,-6.75 0.75,-9 8.5,-24 26.375,-51.5 65,-93.125 104.75,-113.125 15.5547,-7.82031 28.3301,-11.85153 37.4375,-11.90625 z m 425.5625,0.59375 c 3.24,-0.0605 6.1406,0.32812 8.625,1.1875 7.125,2.5 8.375,9.875 3.375,20.625 -4.125,8.875 -18.125,23.375 -26.375,27.5 -8.875,4.25 -22.625,5.25 -35.5,2.5 -5.125,-1.125 -9.5,-1.75 -9.875,-1.5 -1,1 3.75,15.125 6.875,20.375 1.625,2.875 6.375,8.375 10.625,12.25 l 7.5,7 -8.5,13.25 c -26,40.75 -53.375,62.375 -81.25,63.875 -18.625,1 -26.625,-5.625 -25.125,-20.625 1.75,-16.625 34,-67.875 59.5,-94.625 28.2188,-29.42188 67.4451,-51.38867 90.125,-51.8125 z m 412.5938,184.75 c -6.4511,4e-5 -11.986,2.3004 -16.5938,6.90625 -4.6079,4.60593 -6.9062,10.14996 -6.9062,16.59375 0,6.48813 2.2891,12.0302 6.875,16.625 4.5858,4.59482 10.13,6.875 16.625,6.875 6.4728,0 11.9968,-2.28929 16.5937,-6.90625 4.5968,-4.61695 6.9063,-10.14991 6.9063,-16.59375 0,-6.42165 -2.2985,-11.9455 -6.9063,-16.5625 -4.6079,-4.61691 -10.1428,-6.93746 -16.5937,-6.9375 z m 0,4.53125 c 5.1124,4e-5 9.4825,1.8424 13.125,5.5625 3.6423,3.72017 5.4687,8.20251 5.4687,13.40625 0,5.22593 -1.8264,9.68612 -5.4687,13.40625 -3.6425,3.72015 -8.0126,5.59376 -13.125,5.59375 -5.1345,10e-6 -9.5249,-1.86449 -13.1563,-5.5625 -3.6315,-3.69798 -5.4375,-8.16728 -5.4375,-13.4375 0,-5.20374 1.8264,-9.68608 5.4688,-13.40625 3.6424,-3.7201 8.0124,-5.56246 13.125,-5.5625 z m -9.0938,5.375 0,27.1875 5.6562,0 0,-11.0625 3.6876,0 4.5312,11.0625 6.0938,0 -5.5626,-12.1875 c 2.8744,-1.46145 4.3124,-3.80735 4.3126,-7.0625 -2e-4,-5.29231 -3.1961,-7.93747 -9.625,-7.9375 l -9.0938,0 z m 5.6562,4.125 3.2188,0 c 2.8304,3e-5 4.2499,1.23869 4.25,3.71875 -10e-5,2.79013 -1.4288,4.18753 -4.2812,4.1875 l -3.1876,0 0,-7.90625 z"
       transform="matrix(8,0,0,-8,0,6000)"
       id="path8"
       style="fill:#961923;fill-opacity:1;stroke:none" />
  </g>
  <g
     transform="matrix(0.20331698,0,0,0.2051849,-3.1799601,-1.7493047)"
     id="text3017"
     style="font-size:54.17207718px;font-style:normal;font-variant:normal;font-weight:normal;font-stretch:normal;text-align:start;line-height:125%;letter-spacing:0px;word-spacing:0px;writing-mode:lr-tb;text-anchor:start;fill:#000000;fill-opacity:1;stroke:none;font-family:Franklin Gothic Medium Cond;-inkscape-font-specification:Franklin Gothic Medium Cond" />
</svg>
