<svg xmlns="http://www.w3.org/2000/svg" id="Layer_1" width="2500" height="1313" viewBox="0 0 467.4 245.4"><style>.st177{fill:#e5e6e7}</style><path d="M233.7 0C104.6 0 0 54.9 0 122.7c0 67.7 104.6 122.7 233.7 122.7 129 0 233.7-54.9 233.7-122.7S362.7 0 233.7 0" style="fill:#58595b"/><path d="M233.7 0C104.6 0 0 54.9 0 122.7c0 67.7 104.6 122.6 233.6 122.6s233.7-54.9 233.7-122.6C467.3 54.9 362.7 0 233.7 0" style="fill:#595a5c"/><path d="M233.7.1C104.7.1.1 55 .1 122.7s104.6 122.6 233.6 122.6 233.6-54.9 233.6-122.6S362.7.1 233.7.1" style="fill:#5a5b5d"/><path d="M233.7.1C104.7.1.1 55 .1 122.7s104.6 122.6 233.6 122.6 233.6-54.9 233.6-122.6S362.7.1 233.7.1" style="fill:#5b5c5e"/><path d="M233.7.1C104.7.1.1 55 .1 122.7s104.6 122.6 233.6 122.6 233.6-54.9 233.6-122.6S362.7.1 233.7.1" style="fill:#5c5c5f"/><path d="M233.7.1C104.7.1.1 55 .1 122.7s104.6 122.6 233.5 122.6c129 0 233.6-54.9 233.6-122.6S362.7.1 233.7.1" style="fill:#5c5d60"/><path d="M233.7.1C104.7.1.2 55 .2 122.7s104.6 122.5 233.5 122.5c129 0 233.5-54.9 233.5-122.5C467.2 55 362.7.1 233.7.1" style="fill:#5d5e60"/><path d="M233.7.2C104.7.2.2 55 .2 122.7s104.5 122.5 233.5 122.5 233.5-54.9 233.5-122.5C467.2 55 362.6.2 233.7.2" style="fill:#5e5f61"/><path d="M233.7.2C104.8.2.2 55 .2 122.7c0 67.6 104.5 122.5 233.5 122.5 128.9 0 233.5-54.8 233.5-122.5S362.6.2 233.7.2" style="fill:#5f6062"/><path d="M233.7.2C104.8.2.3 55.1.3 122.7s104.5 122.5 233.4 122.5 233.5-54.8 233.5-122.5C467.2 55.1 362.6.2 233.7.2" style="fill:#606163"/><path d="M233.7.3C104.8.3.3 55.1.3 122.7s104.5 122.4 233.4 122.4 233.4-54.8 233.4-122.4S362.6.3 233.7.3" style="fill:#616264"/><path d="M233.7.3C104.8.3.3 55.1.3 122.7s104.5 122.4 233.4 122.4 233.4-54.8 233.4-122.4S362.6.3 233.7.3" style="fill:#616265"/><path d="M233.7.3C104.8.3.3 55.1.3 122.7s104.5 122.4 233.4 122.4 233.4-54.8 233.4-122.4S362.6.3 233.7.3" style="fill:#626366"/><path d="M233.7.3C104.8.3.4 55.1.4 122.7s104.5 122.4 233.3 122.4c128.9 0 233.4-54.8 233.4-122.4S362.6.3 233.7.3" style="fill:#636467"/><path d="M233.7.3C104.9.3.4 55.1.4 122.7S104.9 245 233.7 245C362.6 245 467 190.3 467 122.7S362.6.3 233.7.3" style="fill:#646567"/><path d="M233.7.4C104.9.4.4 55.1.4 122.7S104.9 245 233.7 245 467 190.3 467 122.7 362.5.4 233.7.4" style="fill:#656668"/><path d="M233.7.4C104.9.4.4 55.2.4 122.7S104.9 245 233.7 245 467 190.2 467 122.7 362.5.4 233.7.4" style="fill:#656769"/><path d="M233.7.4C104.9.4.5 55.2.5 122.7S104.9 245 233.7 245 467 190.2 467 122.7 362.5.4 233.7.4" style="fill:#66686a"/><path d="M233.7.4C104.9.4.5 55.2.5 122.7S104.9 245 233.7 245 467 190.2 467 122.7 362.5.4 233.7.4" style="fill:#67686b"/><path d="M233.7.5C104.9.5.5 55.2.5 122.7s104.4 122.2 233.2 122.2 233.2-54.7 233.2-122.2S362.5.5 233.7.5" style="fill:#68696c"/><path d="M233.7.5C105 .5.6 55.2.6 122.7S105 244.9 233.8 244.9 467 190.2 467 122.7C466.9 55.2 362.5.5 233.7.5" style="fill:#696a6c"/><path d="M233.7.5C105 .5.6 55.2.6 122.7S105 244.9 233.7 244.9c128.8 0 233.2-54.7 233.2-122.2S362.5.5 233.7.5" style="fill:#696b6d"/><path d="M233.7.5C105 .5.6 55.2.6 122.7S105 244.8 233.7 244.8s233.1-54.7 233.1-122.1C466.9 55.2 362.5.5 233.7.5" style="fill:#6a6c6e"/><path d="M233.7.6C105 .6.6 55.3.6 122.7S105 244.8 233.7 244.8s233.1-54.7 233.1-122.1S362.5.6 233.7.6" style="fill:#6b6c6f"/><path d="M233.7.6C105 .6.7 55.3.7 122.7s104.4 122.1 233.1 122.1 233.1-54.7 233.1-122.1C466.8 55.3 362.4.6 233.7.6" style="fill:#6c6d70"/><path d="M233.7.6C105 .6.7 55.3.7 122.7s104.3 122.1 233 122.1 233.1-54.7 233.1-122.1S362.4.6 233.7.6" style="fill:#6d6e70"/><path d="M233.7.6C105 .6.7 55.2.7 122.7c0 67.4 104.3 122.1 233 122.1s233-54.7 233-122.1C466.8 55.3 362.4.6 233.7.6" style="fill:#6d6f71"/><path d="M233.7.7C105 .7.7 55.3.7 122.7s104.3 122 233 122 233-54.6 233-122S362.4.7 233.7.7" style="fill:#6e7072"/><path d="M233.7.7C105 .7.7 55.3.7 122.7s104.3 122 233 122 233-54.6 233-122S362.4.7 233.7.7" style="fill:#6f7073"/><path d="M233.7.7C105.1.7.8 55.3.8 122.7s104.3 122 232.9 122 233-54.6 233-122S362.4.7 233.7.7" style="fill:#707174"/><path d="M233.7.7C105.1.7.8 55.4.8 122.7s104.3 122 232.9 122 232.9-54.6 232.9-122C466.7 55.4 362.4.7 233.7.7" style="fill:#707274"/><path d="M233.8.8C105.1.8.9 55.4.9 122.7s104.3 121.9 232.9 121.9S466.7 190 466.7 122.7 362.4.8 233.8.8" style="fill:#717375"/><path d="M233.8.8C105.2.8.9 55.4.9 122.7s104.3 121.9 232.9 121.9S466.7 190 466.7 122.7C466.6 55.4 362.4.8 233.8.8" style="fill:#727476"/><path d="M233.8.8C105.2.8.9 55.4.9 122.7s104.2 121.9 232.8 121.9S466.6 190 466.6 122.7 362.3.8 233.8.8" style="fill:#737477"/><path d="M233.8.8C105.2.8.9 55.4.9 122.7s104.2 121.9 232.8 121.9S466.5 190 466.5 122.7C466.6 55.4 362.3.8 233.8.8" style="fill:#747578"/><path d="M233.8.9C105.2.9 1 55.4 1 122.7s104.2 121.9 232.8 121.9S466.6 190 466.6 122.8C466.6 55.4 362.3.9 233.8.9" style="fill:#747678"/><path d="M233.8.9C105.2.9 1 55.4 1 122.7s104.2 121.8 232.8 121.8c128.5 0 232.8-54.5 232.8-121.8C466.5 55.4 362.3.9 233.8.9" style="fill:#757779"/><path d="M233.8.9C105.2.9 1 55.5 1 122.7 1 190 105.2 244.5 233.8 244.5c128.5 0 232.8-54.5 232.8-121.8C466.5 55.5 362.3.9 233.8.9" style="fill:#76777a"/><path d="M233.8.9C105.3.9 1.1 55.5 1.1 122.7s104.2 121.8 232.7 121.8S466.5 190 466.5 122.7C466.5 55.5 362.3.9 233.8.9" style="fill:#77787b"/><path d="M233.8 1C105.3 1 1.1 55.5 1.1 122.7s104.2 121.7 232.7 121.7 232.7-54.5 232.7-121.7S362.3 1 233.8 1" style="fill:#77797b"/><path d="M233.8 1C105.3 1 1.1 55.5 1.1 122.7s104.2 121.7 232.7 121.7 232.7-54.5 232.7-121.7S362.3 1 233.8 1" style="fill:#787a7c"/><path d="M233.8 1C105.3 1 1.1 55.5 1.1 122.7s104.2 121.7 232.6 121.7c128.5 0 232.7-54.5 232.7-121.7S362.3 1 233.8 1" style="fill:#797a7d"/><path d="M233.8 1C105.3 1 1.2 55.5 1.2 122.7s104.1 121.7 232.6 121.7 232.6-54.5 232.6-121.7S362.2 1 233.8 1" style="fill:#7a7b7e"/><path d="M233.8 1.1C105.3 1.1 1.2 55.5 1.2 122.7s104.1 121.6 232.6 121.6c128.4 0 232.6-54.5 232.6-121.6 0-67.2-104.2-121.6-232.6-121.6" style="fill:#7a7c7f"/><path d="M233.8 1.1C105.4 1.1 1.2 55.5 1.2 122.7s104.1 121.6 232.6 121.6c128.4 0 232.6-54.5 232.6-121.6 0-67.2-104.2-121.6-232.6-121.6" style="fill:#7b7d7f"/><path d="M233.8 1.1C105.4 1.1 1.3 55.6 1.3 122.7c0 67.2 104.1 121.6 232.5 121.6s232.5-54.4 232.5-121.6c0-67.1-104.1-121.6-232.5-121.6" style="fill:#7c7d80"/><path d="M233.8 1.1C105.4 1.1 1.3 55.6 1.3 122.7s104.1 121.6 232.5 121.6 232.5-54.4 232.5-121.6c0-67.1-104.1-121.6-232.5-121.6" style="fill:#7c7e81"/><path d="M233.8 1.2C105.4 1.2 1.3 55.6 1.3 122.7s104.1 121.6 232.5 121.6 232.5-54.4 232.5-121.6c0-67.1-104.1-121.5-232.5-121.5" style="fill:#7d7f82"/><path d="M233.8 1.2C105.4 1.2 1.3 55.6 1.3 122.7s104.1 121.5 232.5 121.5 232.5-54.4 232.5-121.5S362.2 1.2 233.8 1.2" style="fill:#7e8082"/><path d="M233.8 1.2C105.4 1.2 1.4 55.6 1.4 122.7s104.1 121.5 232.4 121.5c128.4 0 232.5-54.4 232.5-121.5C466.2 55.6 362.2 1.2 233.8 1.2" style="fill:#7f8083"/><path d="M233.8 1.2C105.5 1.2 1.4 55.6 1.4 122.7s104.1 121.5 232.4 121.5c128.4 0 232.4-54.4 232.4-121.5S362.1 1.2 233.8 1.2" style="fill:#7f8184"/><path d="M233.8 1.3C105.5 1.3 1.4 55.6 1.4 122.7s104 121.5 232.4 121.5c128.3 0 232.4-54.4 232.4-121.5S362.1 1.3 233.8 1.3" style="fill:#808285"/><path d="M233.8 1.3C105.5 1.3 1.5 55.7 1.5 122.7c0 67.1 104 121.4 232.4 121.4 128.3 0 232.4-54.4 232.4-121.4-.1-67-104.2-121.4-232.5-121.4" style="fill:#818385"/><path d="M233.8 1.3C105.5 1.3 1.5 55.7 1.5 122.7s104 121.4 232.3 121.4 232.3-54.4 232.3-121.4c.1-67-104-121.4-232.3-121.4" style="fill:#828386"/><path d="M233.8 1.3C105.5 1.3 1.5 55.7 1.5 122.7s104 121.4 232.3 121.4 232.3-54.4 232.3-121.4S362.1 1.3 233.8 1.3" style="fill:#828487"/><path d="M233.8 1.4C105.5 1.4 1.5 55.7 1.5 122.7s104 121.4 232.3 121.4 232.3-54.3 232.3-121.4c0-67-104-121.3-232.3-121.3" style="fill:#838588"/><path d="M233.8 1.4C105.6 1.4 1.6 55.7 1.6 122.7S105.6 244 233.8 244c128.3 0 232.3-54.3 232.3-121.3S362.1 1.4 233.8 1.4" style="fill:#848688"/><path d="M233.8 1.4C105.6 1.4 1.6 55.7 1.6 122.7S105.6 244 233.8 244C362.1 244 466 189.7 466 122.7c.1-67-103.9-121.3-232.2-121.3" style="fill:#858689"/><path d="M233.8 1.4C105.6 1.4 1.6 55.7 1.6 122.7S105.6 244 233.8 244C362.1 244 466 189.7 466 122.7S362.1 1.4 233.8 1.4" style="fill:#85878a"/><path d="M233.8 1.5C105.6 1.5 1.6 55.8 1.6 122.7c0 67 104 121.3 232.2 121.3S466 189.7 466 122.7C466 55.8 362 1.5 233.8 1.5" style="fill:#86888b"/><path d="M233.8 1.5C105.6 1.5 1.7 55.8 1.7 122.7c0 67 103.9 121.2 232.1 121.2C362 244 466 189.7 466 122.7 466 55.8 362 1.5 233.8 1.5" style="fill:#87898b"/><path d="M233.8 1.5C105.6 1.5 1.7 55.8 1.7 122.7c0 67 103.9 121.3 232.1 121.3S466 189.7 466 122.7C466 55.8 362 1.5 233.8 1.5" style="fill:#88898c"/><path d="M233.8 1.5C105.6 1.5 1.7 55.8 1.7 122.8 1.7 189.7 105.6 244 233.8 244s232.1-54.3 232.1-121.2c0-67-103.9-121.3-232.1-121.3" style="fill:#888a8d"/><path d="M233.8 1.6c-128.1 0-232 54.2-232 121.2C1.8 189.7 105.7 244 233.9 244S466 189.7 466 122.8c-.1-67-104-121.2-232.2-121.2" style="fill:#898b8e"/><path d="M233.8 1.6c-128.1 0-232 54.2-232 121.2 0 66.9 103.9 121.1 232 121.1 128.2 0 232.1-54.2 232.1-121.1 0-67-103.9-121.2-232.1-121.2" style="fill:#8a8c8e"/><path d="M233.8 1.6c-128.1 0-232 54.2-232 121.1s103.9 121.1 232 121.1 232-54.2 232-121.1C465.9 55.8 362 1.6 233.8 1.6" style="fill:#8a8c8f"/><path d="M233.8 1.6c-128.1 0-232 54.2-232 121.1s103.9 121.1 232 121.1 232-54.2 232-121.1C465.9 55.9 362 1.6 233.8 1.6" style="fill:#8b8d90"/><path d="M233.8 1.7c-128.1 0-232 54.2-232 121.1s103.9 121.1 232 121.1 232-54.2 232-121.1S362 1.7 233.8 1.7" style="fill:#8c8e91"/><path d="M233.8 1.7C105.7 1.7 1.9 55.9 1.9 122.8c0 66.8 103.9 121 231.9 121 128.1 0 232-54.2 232-121 0-66.9-103.9-121.1-232-121.1" style="fill:#8d8f91"/><path d="M233.8 1.7C105.8 1.7 1.9 55.9 1.9 122.8c0 66.8 103.8 121 231.9 121s231.9-54.2 231.9-121C465.8 55.9 361.9 1.7 233.8 1.7" style="fill:#8d8f92"/><path d="M233.8 1.7C105.8 1.7 2 55.9 2 122.8c0 66.8 103.8 121 231.9 121s231.9-54.2 231.9-121c0-66.9-103.9-121.1-232-121.1" style="fill:#8e9093"/><path d="M233.8 1.8C105.8 1.8 2 55.9 2 122.8c0 66.8 103.8 121 231.9 121s231.9-54.2 231.9-121c-.1-66.9-103.9-121-232-121" style="fill:#8f9194"/><path d="M233.9 1.8C105.8 1.8 2 55.9 2 122.8c0 66.8 103.8 121 231.8 121s231.9-54.2 231.9-121c0-66.9-103.8-121-231.8-121" style="fill:#909294"/><path d="M233.9 1.8C105.8 1.8 2 56 2 122.8s103.8 120.9 231.8 120.9 231.8-54.1 231.8-120.9c.1-66.8-103.7-121-231.7-121" style="fill:#909395"/><path d="M233.9 1.8C105.8 1.8 2.1 56 2.1 122.8s103.8 120.9 231.8 120.9 231.8-54.1 231.8-120.9-103.8-121-231.8-121" style="fill:#919396"/><path d="M233.9 1.9C105.9 1.9 2.1 56 2.1 122.8s103.8 120.9 231.8 120.9 231.8-54.1 231.8-120.9S361.9 1.9 233.9 1.9" style="fill:#929497"/><path d="M233.9 1.9C105.9 1.9 2.1 56 2.1 122.8c0 66.7 103.8 120.9 231.7 120.9 128 0 231.8-54.1 231.8-120.9S361.8 1.9 233.9 1.9" style="fill:#939597"/><path d="M233.9 1.9C105.9 1.9 2.1 56 2.1 122.8c0 66.7 103.7 120.8 231.7 120.8s231.7-54.1 231.7-120.8C465.6 56 361.8 1.9 233.9 1.9" style="fill:#939698"/><path d="M233.9 1.9C105.9 1.9 2.2 56 2.2 122.8c0 66.7 103.7 120.8 231.7 120.8s231.7-54.1 231.7-120.8C465.6 56 361.8 1.9 233.9 1.9" style="fill:#949699"/><path d="M233.9 2C105.9 2 2.2 56 2.2 122.8c0 66.7 103.7 120.8 231.7 120.8 127.9 0 231.7-54.1 231.7-120.8C465.6 56 361.8 2 233.9 2" style="fill:#95979a"/><path d="M233.9 2C105.9 2 2.2 56.1 2.2 122.8s103.7 120.8 231.6 120.8 231.7-54.1 231.7-120.8S361.8 2 233.9 2" style="fill:#96989a"/><path d="M233.9 2C106 2 2.3 56.1 2.3 122.8S106 243.5 233.9 243.5s231.6-54.1 231.6-120.7C465.5 56.1 361.8 2 233.9 2" style="fill:#97999b"/><path d="M233.9 2C106 2 2.3 56.1 2.3 122.8S106 243.5 233.9 243.5s231.6-54.1 231.6-120.7C465.5 56.1 361.8 2 233.9 2" style="fill:#97999c"/><path d="M233.9 2.1C106 2.1 2.3 56.1 2.3 122.8c0 66.6 103.7 120.7 231.6 120.7s231.6-54 231.6-120.7S361.8 2.1 233.9 2.1" style="fill:#989a9d"/><path d="M233.9 2.1C106 2.1 2.3 56.1 2.3 122.8c0 66.6 103.7 120.7 231.5 120.7 127.9 0 231.6-54 231.6-120.7S361.8 2.1 233.9 2.1" style="fill:#999b9e"/><path d="M233.9 2.1C106 2.1 2.4 56.1 2.4 122.8c0 66.6 103.7 120.6 231.5 120.6 127.9 0 231.5-54 231.5-120.6 0-66.7-103.7-120.7-231.5-120.7" style="fill:#9a9c9e"/><path d="M233.9 2.1C106 2.1 2.4 56.1 2.4 122.8c0 66.6 103.6 120.6 231.5 120.6 127.8 0 231.5-54 231.5-120.6 0-66.7-103.7-120.7-231.5-120.7" style="fill:#9a9c9f"/><path d="M233.9 2.2C106.1 2.2 2.4 56.2 2.4 122.8S106 243.4 233.9 243.4c127.8 0 231.5-54 231.5-120.6S361.7 2.2 233.9 2.2" style="fill:#9b9da0"/><path d="M233.9 2.2C106.1 2.2 2.5 56.2 2.5 122.8s103.6 120.6 231.4 120.6 231.5-54 231.5-120.6S361.7 2.2 233.9 2.2" style="fill:#9c9ea1"/><path d="M233.9 2.2C106.1 2.2 2.5 56.2 2.5 122.8s103.6 120.5 231.4 120.5 231.4-54 231.4-120.5c0-66.6-103.6-120.6-231.4-120.6" style="fill:#9d9fa1"/><path d="M233.9 2.2C106.1 2.2 2.5 56.2 2.5 122.8s103.6 120.5 231.4 120.5 231.4-54 231.4-120.5c0-66.6-103.6-120.6-231.4-120.6" style="fill:#9da0a2"/><path d="M233.9 2.3C106.1 2.3 2.5 56.2 2.5 122.8c0 66.5 103.6 120.5 231.4 120.5s231.4-54 231.4-120.5c0-66.6-103.6-120.5-231.4-120.5" style="fill:#9ea0a3"/><path d="M233.9 2.3C106.1 2.3 2.6 56.2 2.6 122.8c0 66.5 103.6 120.5 231.3 120.5 127.8 0 231.4-53.9 231.4-120.5S361.7 2.3 233.9 2.3" style="fill:#9fa1a4"/><path d="M233.9 2.3C106.2 2.3 2.6 56.2 2.6 122.8c0 66.5 103.6 120.5 231.3 120.5 127.8 0 231.3-53.9 231.3-120.5S361.7 2.3 233.9 2.3" style="fill:#a0a2a4"/><path d="M233.9 2.3C106.2 2.3 2.6 56.3 2.6 122.8s103.6 120.4 231.3 120.4 231.3-53.9 231.3-120.4S361.6 2.3 233.9 2.3" style="fill:#a1a3a5"/><path d="M233.9 2.4C106.2 2.4 2.6 56.3 2.6 122.8s103.5 120.4 231.3 120.4c127.7 0 231.3-53.9 231.3-120.4S361.6 2.4 233.9 2.4" style="fill:#a1a3a6"/><path d="M233.9 2.4C106.2 2.4 2.7 56.3 2.7 122.8s103.5 120.4 231.2 120.4 231.3-53.9 231.3-120.4S361.6 2.4 233.9 2.4" style="fill:#a2a4a7"/><path d="M233.9 2.4C106.2 2.4 2.7 56.3 2.7 122.8s103.5 120.4 231.2 120.4 231.2-53.9 231.2-120.4S361.6 2.4 233.9 2.4" style="fill:#a3a5a8"/><path d="M233.9 2.4C106.2 2.4 2.7 56.3 2.7 122.8s103.5 120.3 231.2 120.3 231.2-53.9 231.2-120.3c0-66.5-103.5-120.4-231.2-120.4" style="fill:#a4a6a8"/><path d="M233.9 2.5C106.3 2.5 2.8 56.3 2.8 122.8c0 66.4 103.5 120.3 231.2 120.3s231.2-53.9 231.2-120.3C465.1 56.3 361.6 2.5 233.9 2.5" style="fill:#a4a7a9"/><path d="M233.9 2.5C106.3 2.5 2.8 56.3 2.8 122.8c0 66.4 103.5 120.3 231.1 120.3 127.7 0 231.2-53.9 231.2-120.3 0-66.5-103.5-120.3-231.2-120.3" style="fill:#a5a7aa"/><path d="M233.9 2.5C106.3 2.5 2.8 56.4 2.8 122.8S106.3 243 233.9 243 465 189.2 465 122.7C465.1 56.4 361.6 2.5 233.9 2.5" style="fill:#a6a8ab"/><path d="M233.9 2.5C106.3 2.5 2.8 56.4 2.8 122.8S106.3 243 233.9 243C361.6 243 465 189.2 465 122.8S361.6 2.5 233.9 2.5" style="fill:#a7a9ac"/><path d="M233.9 2.6c-127.6 0-231 53.8-231 120.2S106.3 243 233.9 243 465 189.2 465 122.8 361.5 2.6 233.9 2.6" style="fill:#a8aaac"/><path d="M233.9 2.6c-127.6 0-231 53.8-231 120.2S106.3 243 233.9 243 465 189.2 465 122.8 361.5 2.6 233.9 2.6" style="fill:#a8abad"/><path d="M233.9 2.6c-127.6 0-231 53.8-231 120.2S106.3 243 233.9 243s231-53.8 231-120.2C465 56.4 361.5 2.6 233.9 2.6" style="fill:#a9abae"/><path d="M233.9 2.6C106.4 2.6 3 56.4 3 122.8c0 66.3 103.4 120.1 231 120.1s231-53.8 231-120.1C464.9 56.4 361.5 2.6 233.9 2.6" style="fill:#aaacaf"/><path d="M233.9 2.7C106.4 2.7 3 56.4 3 122.8c0 66.3 103.4 120.1 231 120.1s231-53.8 231-120.1C464.9 56.4 361.5 2.7 233.9 2.7" style="fill:#abadaf"/><path d="M233.9 2.7C106.4 2.7 3 56.5 3 122.8s103.4 120.1 230.9 120.1 231-53.8 231-120.1S361.5 2.7 233.9 2.7" style="fill:#acaeb0"/><path d="M233.9 2.7C106.4 2.7 3 56.5 3 122.8s103.4 120.1 230.9 120.1 230.9-53.8 230.9-120.1C464.9 56.5 361.5 2.7 233.9 2.7" style="fill:#acafb1"/><path d="M233.9 2.7C106.4 2.7 3.1 56.5 3.1 122.8s103.4 120 230.9 120 230.9-53.8 230.9-120c-.1-66.3-103.4-120.1-231-120.1" style="fill:#adafb2"/><path d="M234 2.8C106.5 2.8 3.1 56.5 3.1 122.8s103.4 120 230.9 120 230.9-53.7 230.9-120c-.1-66.3-103.5-120-230.9-120" style="fill:#aeb0b3"/><path d="M234 2.8C106.5 2.8 3.1 56.5 3.1 122.8s103.4 120 230.8 120c127.5 0 230.9-53.7 230.9-120S361.4 2.8 234 2.8" style="fill:#afb1b3"/><path d="M234 2.8C106.5 2.8 3.2 56.5 3.2 122.8s103.3 120 230.8 120 230.8-53.7 230.8-120S361.4 2.8 234 2.8" style="fill:#b0b2b4"/><path d="M234 2.8C106.5 2.8 3.2 56.5 3.2 122.8c0 66.2 103.3 120 230.8 120s230.8-53.7 230.8-120S361.4 2.8 234 2.8" style="fill:#b1b3b5"/><path d="M234 2.9C106.5 2.9 3.2 56.6 3.2 122.8S106.5 242.7 234 242.7c127.4 0 230.8-53.7 230.8-119.9C464.7 56.6 361.4 2.9 234 2.9" style="fill:#b1b3b6"/><path d="M234 2.9C106.5 2.9 3.2 56.6 3.2 122.8S106.5 242.7 234 242.7c127.4 0 230.7-53.7 230.7-119.9S361.4 2.9 234 2.9" style="fill:#b2b4b7"/><path d="M234 2.9C106.6 2.9 3.3 56.6 3.3 122.8S106.6 242.7 234 242.7 464.7 189 464.7 122.8 361.4 2.9 234 2.9" style="fill:#b3b5b7"/><path d="M234 2.9C106.6 2.9 3.3 56.6 3.3 122.8S106.6 242.7 234 242.7 464.7 189 464.7 122.8 361.4 2.9 234 2.9" style="fill:#b4b6b8"/><path d="M234 3C106.6 3 3.3 56.6 3.3 122.8S106.6 242.6 234 242.6s230.7-53.7 230.7-119.8C464.6 56.6 361.4 3 234 3" style="fill:#b5b7b9"/><path d="M234 3C106.6 3 3.3 56.6 3.3 122.8S106.6 242.6 234 242.6 464.6 189 464.6 122.8 361.3 3 234 3" style="fill:#b5b7ba"/><path d="M234 3C106.6 3 3.4 56.6 3.4 122.8S106.6 242.6 234 242.6 464.6 189 464.6 122.8 361.3 3 234 3" style="fill:#b6b8bb"/><path d="M234 3C106.6 3 3.4 56.7 3.4 122.8S106.6 242.6 234 242.6c127.3 0 230.6-53.6 230.6-119.8C464.6 56.7 361.3 3 234 3" style="fill:#b7b9bb"/><path d="M234 3.1C106.7 3.1 3.4 56.7 3.4 122.8S106.6 242.5 234 242.5c127.3 0 230.6-53.6 230.6-119.7S361.3 3.1 234 3.1" style="fill:#b8babc"/><path d="M234 3.1C106.7 3.1 3.5 56.7 3.5 122.8S106.7 242.5 234 242.5s230.5-53.6 230.5-119.7S361.3 3.1 234 3.1" style="fill:#b9bbbd"/><path d="M234 3.1C106.7 3.1 3.5 56.7 3.5 122.8S106.7 242.5 234 242.5s230.5-53.6 230.5-119.7S361.3 3.1 234 3.1" style="fill:#babbbe"/><path d="M234 3.1C106.7 3.1 3.5 56.7 3.5 122.8S106.7 242.5 234 242.5s230.5-53.6 230.5-119.7S361.3 3.1 234 3.1" style="fill:#babcbf"/><path d="M234 3.2C106.7 3.2 3.5 56.7 3.5 122.8s103.2 119.6 230.4 119.6c127.3 0 230.5-53.6 230.5-119.6C464.5 56.7 361.3 3.2 234 3.2" style="fill:#bbbdbf"/><path d="M234 3.2C106.7 3.2 3.6 56.7 3.6 122.8S106.8 242.4 234 242.4c127.3 0 230.4-53.6 230.4-119.6C464.4 56.7 361.3 3.2 234 3.2" style="fill:#bcbec0"/><path d="M234 3.2C106.8 3.2 3.6 56.8 3.6 122.8S106.8 242.4 234 242.4s230.4-53.6 230.4-119.6S361.2 3.2 234 3.2" style="fill:#bdbfc1"/><path d="M234 3.2C106.8 3.2 3.6 56.8 3.6 122.8S106.7 242.4 234 242.4c127.2 0 230.4-53.5 230.4-119.6 0-66-103.2-119.6-230.4-119.6" style="fill:#bec0c2"/><path d="M234 3.3C106.8 3.3 3.7 56.8 3.7 122.8S106.8 242.3 234 242.3s230.4-53.5 230.4-119.5S361.2 3.3 234 3.3" style="fill:#bfc0c3"/><path d="M234 3.3C106.8 3.3 3.7 56.8 3.7 122.8S106.8 242.3 234 242.3s230.3-53.5 230.3-119.5S361.2 3.3 234 3.3" style="fill:#bfc1c3"/><path d="M234 3.3C106.8 3.3 3.7 56.8 3.7 122.8S106.8 242.3 234 242.3s230.3-53.5 230.3-119.5S361.2 3.3 234 3.3" style="fill:#c0c2c4"/><path d="M234 3.3C106.8 3.3 3.7 56.8 3.7 122.8S106.8 242.3 234 242.3s230.3-53.5 230.3-119.5S361.2 3.3 234 3.3" style="fill:#c1c3c5"/><path d="M234 3.4C106.9 3.4 3.8 56.8 3.8 122.8S106.9 242.3 234 242.3c127.2 0 230.3-53.5 230.3-119.5S361.2 3.4 234 3.4" style="fill:#c2c4c6"/><path d="M234 3.4C106.9 3.4 3.8 56.9 3.8 122.8S106.9 242.2 234 242.2s230.2-53.5 230.2-119.4C464.3 56.9 361.2 3.4 234 3.4" style="fill:#c3c4c7"/><path d="M234 3.4C106.9 3.4 3.8 56.9 3.8 122.8S106.9 242.2 234 242.2s230.2-53.5 230.2-119.4S361.1 3.4 234 3.4" style="fill:#c4c5c7"/><path d="M234 3.4C106.9 3.4 3.8 56.9 3.8 122.8S106.9 242.2 234 242.2s230.2-53.5 230.2-119.4S361.1 3.4 234 3.4" style="fill:#c4c6c8"/><path d="M234 3.5C106.9 3.5 3.9 56.9 3.9 122.8s103 119.4 230.1 119.4 230.2-53.4 230.2-119.4C464.2 56.9 361.1 3.5 234 3.5" style="fill:#c5c7c9"/><path d="M234 3.5C106.9 3.5 3.9 56.9 3.9 122.8s103 119.3 230.1 119.3 230.1-53.4 230.1-119.3C464.2 56.9 361.1 3.5 234 3.5" style="fill:#c6c8ca"/><path d="M234 3.5C107 3.5 3.9 56.9 3.9 122.8s103 119.3 230.1 119.3 230.1-53.4 230.1-119.3S361.1 3.5 234 3.5" style="fill:#c7c9cb"/><path d="M234 3.5C107 3.5 4 56.9 4 122.8s103 119.3 230 119.3c127.1 0 230.1-53.4 230.1-119.3S361.1 3.5 234 3.5" style="fill:#c8c9cb"/><path d="M234 3.6C107 3.6 4 56.9 4 122.8s103 119.3 230 119.3 230.1-53.4 230.1-119.3S361.1 3.6 234 3.6" style="fill:#c9cacc"/><path d="M234 3.6C107 3.6 4 57 4 122.8S107 242 234 242s230-53.4 230-119.2C464.1 57 361.1 3.6 234 3.6" style="fill:#c9cbcd"/><path d="M234 3.6C107 3.6 4 57 4 122.8 4 188.7 107 242 234 242s230-53.4 230-119.2C464.1 57 361.1 3.6 234 3.6" style="fill:#caccce"/><path d="M234 3.6C107 3.6 4.1 57 4.1 122.8S107 242 234 242s230-53.4 230-119.2S361 3.6 234 3.6" style="fill:#cbcdce"/><path d="M234 3.7C107.1 3.7 4.1 57 4.1 122.8S107.1 242 234 242c127 0 230-53.4 230-119.2S361 3.7 234 3.7" style="fill:#cccdcf"/><path d="M234 3.7C107.1 3.7 4.1 57 4.1 122.8S107.1 242 234 242c127 0 230-53.4 230-119.2S361 3.7 234 3.7" style="fill:#cdced0"/><path d="M234 3.7C107.1 3.7 4.2 57 4.2 122.8s102.9 119.1 229.9 119.1S464 188.6 464 122.8 361 3.7 234 3.7" style="fill:#cecfd1"/><path d="M234 3.7C107.1 3.7 4.2 57 4.2 122.8s102.9 119.1 229.9 119.1S464 188.6 464 122.8C463.9 57 361 3.7 234 3.7" style="fill:#ced0d2"/><path d="M234.1 3.8c-127 0-229.9 53.3-229.9 119 0 65.8 102.9 119.1 229.8 119.1s229.9-53.3 229.9-119.1c0-65.7-102.9-119-229.8-119" style="fill:#cfd1d2"/><path d="M234.1 3.8c-127 0-229.9 53.3-229.9 119s102.9 119 229.8 119 229.8-53.3 229.8-119c.1-65.7-102.8-119-229.7-119" style="fill:#d0d1d3"/><path d="M234.1 3.8C107.2 3.8 4.3 57.1 4.3 122.8s102.9 119 229.8 119 229.8-53.3 229.8-119S361 3.8 234.1 3.8" style="fill:#d1d2d4"/><path d="M234.1 3.8C107.2 3.8 4.3 57.1 4.3 122.8s102.9 119 229.8 119 229.8-53.3 229.8-119c-.1-65.7-102.9-119-229.8-119" style="fill:#d2d3d5"/><path d="M234.1 3.9C107.2 3.9 4.3 57.1 4.3 122.8s102.9 119 229.7 119c126.9 0 229.8-53.3 229.8-119S360.9 3.9 234.1 3.9" style="fill:#d2d4d6"/><path d="M234.1 3.9C107.2 3.9 4.4 57.1 4.4 122.8s102.9 118.9 229.7 118.9c126.9 0 229.7-53.3 229.7-118.9 0-65.7-102.9-118.9-229.7-118.9" style="fill:#d3d5d6"/><path d="M234.1 3.9C107.2 3.9 4.4 57.1 4.4 122.8s102.8 118.9 229.7 118.9 229.7-53.3 229.7-118.9c0-65.7-102.9-118.9-229.7-118.9" style="fill:#d4d6d7"/><path d="M234.1 3.9C107.2 3.9 4.4 57.2 4.4 122.8c0 65.7 102.8 118.9 229.7 118.9 126.8 0 229.7-53.2 229.7-118.9 0-65.6-102.9-118.9-229.7-118.9" style="fill:#d5d6d8"/><path d="M234.1 4C107.3 4 4.4 57.2 4.4 122.8S107.2 241.7 234 241.7s229.7-53.2 229.7-118.9C463.7 57.2 360.9 4 234.1 4" style="fill:#d6d7d9"/><path d="M234.1 4C107.3 4 4.5 57.2 4.5 122.8s102.8 118.9 229.6 118.9 229.6-53.2 229.6-118.9C463.7 57.2 360.9 4 234.1 4" style="fill:#d7d8d9"/><path d="M234.1 4C107.3 4 4.5 57.2 4.5 122.8s102.8 118.8 229.6 118.8 229.6-53.2 229.6-118.8S360.9 4 234.1 4" style="fill:#d7d9da"/><path d="M234.1 4C107.3 4 4.5 57.2 4.5 122.8s102.8 118.8 229.6 118.8 229.6-53.2 229.6-118.8S360.9 4 234.1 4" style="fill:#d8dadb"/><path d="M234.1 4.1C107.3 4.1 4.5 57.2 4.5 122.8S107.3 241.6 234 241.6c126.8 0 229.6-53.2 229.6-118.8S360.9 4.1 234.1 4.1" style="fill:#d9dadc"/><path d="M234.1 4.1C107.3 4.1 4.6 57.2 4.6 122.8s102.8 118.8 229.5 118.8c126.8 0 229.5-53.2 229.5-118.8S360.8 4.1 234.1 4.1" style="fill:#dadbdd"/><path d="M234.1 4.1C107.4 4.1 4.6 57.3 4.6 122.8c0 65.6 102.8 118.7 229.5 118.7s229.5-53.2 229.5-118.7S360.8 4.1 234.1 4.1" style="fill:#dbdcdd"/><path d="M234.1 4.1C107.4 4.1 4.6 57.3 4.6 122.8c0 65.6 102.7 118.7 229.5 118.7 126.7 0 229.5-53.2 229.5-118.7S360.8 4.1 234.1 4.1" style="fill:#dcddde"/><path d="M234.1 4.2C107.4 4.2 4.7 57.3 4.7 122.8s102.7 118.7 229.4 118.7 229.5-53.1 229.5-118.7C463.5 57.3 360.8 4.2 234.1 4.2" style="fill:#dcdedf"/><path d="M234.1 4.2C107.4 4.2 4.7 57.3 4.7 122.8s102.7 118.7 229.4 118.7 229.4-53.1 229.4-118.7c0-65.5-102.7-118.6-229.4-118.6" style="fill:#dddee0"/><path d="M234.1 4.2C107.4 4.2 4.7 57.3 4.7 122.8s102.7 118.6 229.4 118.6 229.4-53.1 229.4-118.6S360.8 4.2 234.1 4.2" style="fill:#dedfe0"/><path d="M234.1 4.2C107.4 4.2 4.7 57.3 4.7 122.8s102.7 118.6 229.4 118.6 229.4-53.1 229.4-118.6S360.8 4.2 234.1 4.2" style="fill:#dfe0e1"/><path d="M234.1 4.3C107.5 4.3 4.8 57.3 4.8 122.8s102.7 118.6 229.3 118.6c126.7 0 229.4-53.1 229.4-118.6S360.8 4.3 234.1 4.3" style="fill:#e0e1e2"/><path d="M234.1 4.3C107.5 4.3 4.8 57.4 4.8 122.8c0 65.5 102.7 118.6 229.3 118.6s229.3-53.1 229.3-118.6c0-65.4-102.7-118.5-229.3-118.5" style="fill:#e0e2e3"/><path d="M234.1 4.3C107.5 4.3 4.8 57.4 4.8 122.8c0 65.5 102.7 118.5 229.3 118.5s229.3-53.1 229.3-118.5S360.7 4.3 234.1 4.3" style="fill:#e1e2e3"/><path d="M234.1 4.3C107.5 4.3 4.9 57.4 4.9 122.9c0 65.4 102.6 118.5 229.3 118.5 126.6 0 229.3-53.1 229.3-118.5C463.4 57.4 360.7 4.3 234.1 4.3" style="fill:#e2e3e4"/><path d="M234.1 4.4C107.5 4.4 4.9 57.4 4.9 122.9c0 65.4 102.6 118.5 229.2 118.5s229.3-53.1 229.3-118.5c0-65.5-102.7-118.5-229.3-118.5" style="fill:#e3e4e5"/><path d="M234.1 4.4C107.5 4.4 4.9 57.4 4.9 122.9c0 65.4 102.6 118.5 229.2 118.5s229.2-53.1 229.2-118.5c0-65.5-102.6-118.5-229.2-118.5" style="fill:#e4e5e6"/><path d="M234.1 4.4C107.6 4.4 4.9 57.4 4.9 122.9c0 65.4 102.6 118.4 229.2 118.4s229.2-53 229.2-118.4c0-65.5-102.6-118.5-229.2-118.5" class="st177"/><path d="M234.1 4.4C107.6 4.4 5 57.4 5 122.9c0 65.4 102.6 118.4 229.2 118.4s229.2-53 229.2-118.4C463.3 57.4 360.7 4.4 234.1 4.4" class="st177"/><path d="M234.1 4.5C107.6 4.5 5 57.5 5 122.9s102.6 118.4 229.1 118.4 229.2-53 229.2-118.4S360.7 4.5 234.1 4.5" style="fill:#e6e7e8"/><path d="M233.7 9.7c-124 0-224.5 50.6-224.5 113s100.5 113 224.5 113 224.5-50.6 224.5-113-100.5-113-224.5-113" style="fill:none"/><linearGradient id="SVGID_1_" x1="174.665" x2="292.683" y1="-3.865" y2="249.225" gradientUnits="userSpaceOnUse"><stop offset="0" stop-color="#008948"/><stop offset=".042" stop-color="#008847"/><stop offset=".096" stop-color="#008244"/><stop offset=".157" stop-color="#00793f"/><stop offset=".222" stop-color="#006a37"/><stop offset=".291" stop-color="#00572b"/><stop offset=".319" stop-color="#004e24"/><stop offset="1"/></linearGradient><path d="M233.7 9.7c-124 0-224.5 50.6-224.5 113s100.5 113 224.5 113 224.5-50.6 224.5-113-100.5-113-224.5-113" style="fill:url(#SVGID_1_)"/><path d="M233.7 23.2c-116.2 0-210.4 45-210.4 100.5s94.2 100.5 210.4 100.5 210.4-45 210.4-100.5S349.9 23.2 233.7 23.2" style="fill:none;stroke:#004e24;stroke-width:2.8942"/><path d="M233.7 17.3c-119.3 0-216 47.3-216 105.5 0 58.3 96.7 105.5 216 105.5S449.8 181 449.8 122.8C449.7 64.6 353 17.3 233.7 17.3" style="fill:none;stroke:#f5f0cc;stroke-width:5.4873"/><path d="M363.3 74.8H328l-4.3 12.9h22.8l-26 9.4-1.7 5.2 40.1-13.7zM141.9 96.4l-4.8 13.7h-34.4s.8-.3 1.9-2.6 17-48.6 17-48.6 2.2-4.9-.3-6.1h19.9s-1.1-.3-3 4.6c-1.1 2.8-14.4 40-14.4 40h14.4s3.3.3 3.7-1m56.6 13.7h16.2s-1.1-1.7-.4-3.6c.9-2.6 9.5-27.1 9.5-27.1l3.8 30.7h14.7l19.2-54.6s.8-2.6 1.9-2.6h-15.6s.4 1.9-.1 3.3c-.6 1.5-9.4 26.2-9.4 26.2l-3.5-29.5H218s.9 1.5.3 3c-.5 1.3-17.8 51-17.8 51s-1 3.2-2 3.2M291 52.9h-18.4s1.4 2.3-.4 7.7-15.9 45.2-15.9 45.2-1.1 3.8-2.6 4.5h22.2s26.9 1.1 35.2-28.5c-.1-.1 10.4-29.2-20.1-28.9m2 31.3c-4.7 12-11.7 12.8-15.4 12.8H275l10.8-31.8h4.2c-.1 0 10.7-.6 3 19M78.1 156.3h35.3l4.3-12.9H94.8l26.1-9.4 1.7-5.2-40.1 13.8zm100.5-12c6.6-22.2-15.7-21.6-15.7-21.6H140c1.7 1.9.4 6 .4 6s-14.2 42.5-15.3 45.8-3.1 5.5-3.1 5.5h18.1c-.6 0-.6-1.9-.6-1.9l6.5-18s8.1 16.6 8.7 17.7c.5 1.2.3 2.1.3 2.1h19.3c-1.9 0-3.8-3.7-3.8-3.7l-9.6-18.1c13.3.2 17.7-13.8 17.7-13.8m-15.8-2c-2.5 5.7-9.4 5-9.4 5h-3.5l3.7-11.5h3.8c8.3 0 5.4 6.5 5.4 6.5m215.5 2.7c7.1-23.3-15.5-22.1-15.5-22.1h-22.7c1.7 1.9.4 6 .4 6s-14.8 42.7-15.9 45.9c-1.1 3.3-3.2 5.4-3.2 5.4h18.9c-1.4 0-.4-3.5-.4-3.5l5.8-16.4s7.8 16.6 8.4 17.7c.6 1.2.3 2.1.3 2.1h20c-1.9 0-3.9-3.7-3.9-3.7l-9.6-18.1c13.4.2 17.4-13.3 17.4-13.3m-16-2.4c-2.1 5.5-8.9 5-8.9 5h-3.5l3.7-11.4h5s6.1-.2 3.7 6.4m-147.8-21.4c-17.7 0-29.2 14-32.2 31.4-2.7 16 5.9 28.8 20.2 28.8 20 0 31.9-20.5 31.9-35.2 0-15.4-6.1-25-19.9-25m2.6 31.9c-2.9 12-8.4 15.7-13.3 14.8-6.8-1.3-5.6-12.3-4.5-17.4 2.4-11.1 8.3-16.4 12.7-15.9 1.4.2 9.4.4 5.1 18.5m22-30.2s1.4.8 1.4 4.4v49.6s-.2 2.7-1.2 3.3h14.8s0-1.2 1.5-3.1 32.3-45.2 32.3-45.2 7-9.1 8.9-9.1h-21.3s1.7 1.2.4 3.3-20.2 31.7-20.2 31.7l.3-29.8s0-4.8 1.8-5.2zm89.8 13.5 4.8-13.5h-36s1.3 1.2-.4 6-16.3 45.9-16.3 45.9-2.6 5.4-3.3 5.4h37.1l4.4-13.7s-.6.8-4.1.8h-15.7l3.3-9.3H315s2.6-.2 3.1.6l5-14.7s-.4 1.3-3.7 1.3h-11.8l3.5-10.2h15c0 .1 2-.2 2.8 1.4m-132.3-26.2s-1.3-.8-1.6-3.1l-2.2-50.4s-.1-3.2 1.4-3.9h-17.6s1.2 1.6-1.1 5.2c-2.4 3.6-32.4 50.2-32.4 50.2s-.6 1.2-2.1 1.9h17.8s-.1-1.4.4-2.4c.8-1.7 3-5.7 3-5.7h17.9v5s.1 1.8-1.2 3.1h17.7zm-26.7-21.1 9.9-16.8.1 16.8z" style="fill:#f5f0cc"/></svg>