<svg xmlns="http://www.w3.org/2000/svg" xml:space="preserve" width="950" height="842.947" viewBox="0 0 950 842.947"><path d="M475.378 0C401.976 0 339.75 11.508 283.213 37.263c-36.68 16.71-71.559 40.102-102.61 73.2-16.191 17.258-33.696 42.249-44.284 64.713-23.835 50.572-26.386 90.791-26.386 122.2 0 17.842.123 34.396 4.847 59.382 3.634 19.223 9.912 40.103 20.67 62.822 36.864 77.85 105.004 120.125 147.003 139.108 56.965 25.747 118.256 37.622 192.925 37.622s135.653-11.604 192.495-37.622c35.37-16.19 108.05-57.696 146.623-139.108 25.097-52.97 25.57-100.366 25.57-122.203 0-33.119-2.957-73.094-26.547-122.2-35.543-73.985-97.698-115.268-146.08-137.425C611.659 12.207 548.779 0 475.378 0m0 32.152c62.304 0 115.979 11.016 164.044 35.073 42.023 21.033 75.738 49.353 97.278 81.837 0 0-66.744 33.485-100.188 50.147-18.579 9.256-78.127 39.528-88.2 48.78-12.11 11.123-25.348 30.22-33.986 42.587-13.18 18.87-26.491 38.966-39.308 58.217-12.898-19.088-26.218-39.347-39.398-58.217-8.639-12.367-21.004-30.688-34.004-42.628-5.825-5.351-37.806-23.802-87.621-48.63l-100.9-50.289c24.348-35.17 55.786-60.77 97.809-81.804 48.065-24.057 102.17-35.073 164.474-35.073m294.456 190.276c8.277 20.084 11.856 48.008 11.856 74.949 0 49.687-9.641 87.69-28.985 124.043-8.227 15.46-20.89 34.522-37.96 52.324-19.135 19.956-44.109 39.73-74.645 54.985-48.278 24.119-100.779 35.432-164.722 35.432s-117.096-11.36-165.234-35.273c-59.12-29.367-94.212-72.548-113.002-107.794-18.042-33.842-28.94-71.528-28.94-123.717 0-26.94 3.877-55 11.774-74.922 42.83 18.122 85.21 36.444 127.345 55.871 50.811 23.427 82.939 40.395 89.446 46.196 10.646 9.49 27.274 31.996 32.296 38.85 13.74 18.751 27.153 37.358 40.653 56.254h10.435c13.5-18.896 27.137-37.734 40.786-56.254 5.44-7.382 20.976-28.645 30.92-37.51 8.052-7.178 36.023-22.413 90.985-47.753 42.135-19.427 84.162-37.56 126.992-55.681" style="fill:#000;stroke-width:14.5899;paint-order:stroke fill markers"/><path d="m315.72 698.752-23.224 2.744-60.59 141.451h19.844l20.268-49.824h50.67l19.21 49.824h31.88zm576.221 0-23.222 2.744-60.592 141.451h19.846l20.267-49.824h50.668l19.213 49.824H950zm-876.529.633L0 842.947h18.79l9.077-109.572h.846l49.402 100.916h9.922l49.613-101.338h.844l10.557 109.994h29.345l-15.2-143.562h-27.868l-45.39 94.582h-.633l-46.237-94.582zm422.656 0-3.8 15.834h74.525v1.267l-81.703 118.86v7.601h123.293l9.924-18.367h-1.268c-14.356 1.9-29.767 2.111-91.625 2.111v-1.267L549.75 706.14v-6.756zm186.57 0v143.562h53.624c48.768 0 80.86-25.968 80.86-71.57 0-47.924-28.501-71.992-77.692-71.992zm28.5 15.623h23.012c36.102 0 52.149 20.267 52.149 56.369 0 34.835-17.313 55.736-53.203 55.736h-21.957zm-355.152 12.668h1.055l18.791 50.035H277.93zm576.221 0h1.057l18.789 50.035h-39.9z" style="font-weight:700;font-size:79.0314px;line-height:0;font-family:&quot;Mazda Type&quot;;-inkscape-font-specification:&quot;Mazda Type Bold&quot;;letter-spacing:16px;word-spacing:0;fill:#000;fill-opacity:1;stroke-width:7.38322;stroke-linecap:square"/></svg>