<svg xmlns="http://www.w3.org/2000/svg" width="2500" height="2092" viewBox="0 0 504 421.7"><path d="M293.7 227.7c-.4.1-2 .1-2.7.1h-51.6v12h52.5c.4 0 3.5 0 4.1-.1 10.7-1 15.6-9.9 15.6-17.7 0-8-5.1-16.6-14.8-17.5-1.9-.2-3.5-.2-4.2-.2h-34.3c-1.5 0-3.2-.1-3.8-.3-2.7-.7-3.7-3.1-3.7-5.1 0-1.8 1-4.2 3.8-5 .8-.2 1.7-.3 3.6-.3h49.5v-11.8h-50.3c-2.1 0-3.7.1-5 .3-8.6 1.2-14.6 8.1-14.6 16.9 0 7.2 4.5 15.6 14.4 17 1.8.2 4.3.2 5.4.2H291c.6 0 2.1 0 2.4.1 3.8.5 5.1 3.3 5.1 5.8 0 2.4-1.5 5-4.8 5.6m-97.8 0c-.4.1-2 .1-2.6.1h-51.7v12h52.5c.4 0 3.5 0 4.1-.1 10.7-1 15.6-9.9 15.6-17.7 0-8-5.1-16.6-14.8-17.5-1.9-.2-3.5-.2-4.2-.2h-34.3c-1.5 0-3.2-.1-3.8-.3-2.7-.7-3.7-3.1-3.7-5.1 0-1.8 1-4.2 3.8-5 .8-.2 1.7-.3 3.6-.3h49.5v-11.8h-50.3c-2.1 0-3.7.1-5 .3-8.6 1.2-14.6 8.1-14.6 16.9 0 7.2 4.5 15.6 14.4 17 1.8.2 4.3.2 5.4.2h33.4c.6 0 2.1 0 2.4.1 3.8.5 5.1 3.3 5.1 5.8 0 2.4-1.4 5-4.8 5.6m-94.2-46.3h13v58.7h-13zM73 240.1v-58.7H60v43.8l-43.3-43.8H0v58.7h13v-44l43.6 44zm418.1-58.7v43.8l-43.3-43.8h-16.7v58.7h13v-44l43.5 44H504v-58.7zm-127.7 0-36.6 58.7h15.8l6.5-10.5h42.7l6.5 10.5H414l-36.6-58.7zm21.7 37.1h-29.3l14.7-23.6zM72.3 148.1C98.5 71.6 170.7 20.2 252.1 20.2s153.7 51.4 179.8 127.9l.2.6h57.3v-6.9l-23.8-2.8c-14.7-1.7-17.8-8.2-21.8-16.4l-1-2C408.4 47.4 333.5 0 252.1 0 170.6 0 95.8 47.4 61.4 120.8l-1 2c-4 8.2-7.1 14.7-21.8 16.4L14.8 142v6.9H72zm359.8 124.8-.2.6c-26.2 76.5-98.4 127.8-179.8 127.8S98.4 349.9 72.3 273.4l-.2-.6H14.9v6.9l23.8 2.8c14.7 1.7 17.8 8.2 21.8 16.4l1 2c34.4 73.4 109.3 120.8 190.7 120.8S408.5 374.3 442.9 301l1-2c4-8.2 7.1-14.7 21.8-16.4l23.8-2.8v-6.9z"/></svg>