<svg xmlns="http://www.w3.org/2000/svg" xml:space="preserve" viewBox="0 0 172.23 113.58"><path d="M86.11 8.79c14.14 0 28.82 1.21 43.72 3.78.22 5.97.47 15.2.05 23.04-.95 17.47-4.79 31.02-12.1 42.67-7.29 11.61-18.57 21.59-31.67 27.52-13.1-5.93-24.38-15.91-31.67-27.52-7.31-11.64-11.15-25.2-12.1-42.67-.43-7.83-.17-17.07.05-23.04C57.29 10 71.97 8.79 86.11 8.79m0 1.68c-13.94 0-28.1 1.19-42.09 3.53-.31 8.86-.31 15.91 0 21.52.93 17.17 4.7 30.47 11.85 41.86s17.87 20.8 30.25 26.56c12.38-5.76 23.1-15.17 30.25-26.56s10.91-24.69 11.85-41.86c.31-5.61.31-12.66 0-21.52-14.01-2.34-28.17-3.53-42.11-3.53m-.12 51.01s.28 1.63.36 2.11c.05.27.06.34-.01.6-.22.85-1.24 5.32-2.05 9.89l-.13.72c-.33 1.93-.62 3.84-.79 5.47-.09.93-.06 1.15.18 1.98.7 2.33 3.27 8.42 3.76 9.53.05.12.09.25.1.38l.19 1.44c-.82-1.25-5.3-9.48-7.06-14.04-.21-.54-.25-.8-.02-1.79 1.23-5.23 4.54-14.14 5.47-16.29m-6.53-12.66s.34 1.12.68 2.33l.12.43c.21.79.4 1.57.46 2.06.06.47.05.6-.11 1.06-.41 1.09-1.16 2.84-1.96 4.63l-.35.77c-.98 2.17-1.98 4.27-2.47 5.18-.24.45-.46.74-.91 1.2-1.02 1.04-2.99 3.02-4.2 4.12-.44.4-.56.74-.65 1.26-.14.83-.29 2.26-.33 2.99-.03.65.07.95.43 1.59 2.14 3.82 9.28 12.61 11.32 14.45.15.13.26.22.57.43.3.2 1.27.83 1.27.83.04.03.07.06.1.1l.35.62s-.03-.02-.09-.05l-.15-.08c-.12-.06-.28-.14-.47-.24l-.45-.23c-.7-.35-1.52-.77-1.96-1-.18-.1-.35-.21-.5-.34-2.38-1.98-9.69-10.53-11.83-14.11-.54-.89-.59-1.18-.52-2.02.13-1.57.34-3.55.53-4.41.11-.52.23-.83.63-1.29 1.34-1.55 2.98-3.59 4.58-5.69l.56-.74c2.42-3.22 4.65-6.44 5.48-8.08.19-.37.21-.5.21-.86.01-1.02-.32-3.01-.4-3.52-.01-.08-.02-.16-.01-.24zm19.93-1.92.62.27c.18.08.35.19.49.34 3.79 3.95 6.81 8.05 7.42 9.14.12.21.2.42.23.65.68 5.77.1 11.88-1.29 17.19-.13.48-.27.72-.73 1.07-1.48 1.12-3.7 2.9-5.9 4.71l-.69.57c-2.65 2.2-5.17 4.35-6.24 5.34q-.405.375-.69.84c-.5.82-1.27 2.22-1.64 2.92l-.1.2c-.08.14-.12.22-.12.22-.5-1.09-1.59-3.75-1.96-4.82-.12-.35-.14-.53-.01-1 .61-2.23 3.48-8.7 4.04-9.88v.48c0 .07-.01.14-.03.2-.25.77-1.8 5.87-2.11 8.08-.07.49-.06.63 0 1.11.14 1.03.76 2.93.76 2.93s.37-.76.71-1.28c.17-.25.27-.38.54-.65 1.38-1.37 3.74-3.48 6.2-5.61l.87-.75c1.89-1.62 3.77-3.2 5.26-4.4.39-.31.53-.52.62-1.12.43-2.93.55-8.19.29-12.02-.05-.72-.28-1.42-.69-2.02-.93-1.38-2.05-2.69-3.74-4.37-.24-.24-.41-.55-.47-.88-.54-2.64-1.64-7.46-1.64-7.46M67.38 53c.24-.08.49-.08.73-.03 1.08.26 3.36.82 5.09 1.26.24.06.54.29.67.5l.38.63c.13.22.14.49.02.72-.31.61-.76 1.43-1.23 2.28l-.36.64a86 86 0 0 1-1.69 2.89c-.25.39-.38.57-.82.72-1.7.6-3.81 1.31-5.06 1.72-.26.08-.34.24-.29.52.09.52.38 2.28.49 2.79.04.19.19.34.47.29.74-.14 2.71-.62 2.71-.62s-.58.54-.93.86c-.06.06-.14.1-.22.13-.54.18-1.85.55-2.26.64-.32.07-.52-.06-.6-.42 0 0-.56-2.38-.76-3.2-.03-.12-.06-.23-.1-.35-.15-.47-.52-1.39-.72-1.88-.02-.06-.04-.12-.03-.18.01-.55.11-1.78.11-1.78s1.21 1.13 1.79 1.54c.13.09.21.11.37.07.8-.21 2.65-.82 3.66-1.2.23-.09.43-.23.59-.42 1.05-1.27 2.36-3.24 3.12-4.73.1-.2.12-.44.06-.66l-.16-.54c-.05-.16-.21-.34-.37-.39-1.79-.68-3.19-1.19-4.85-1.75zm35.33-15.35c.39-.14.82-.13 1.21.03 2.99 1.26 8.03 4.22 10.83 6.3.27.2.38.34.45.67.66 2.99.91 7.62.49 11.51-.03.28-.09.45-.23.75-1.77 3.63-3.77 7.05-5.87 9.68v-.04c.03-.28.18-1.86.19-2.72 0-.1.05-.19.12-.24.39-.3.93-.73 1.23-1 .15-.13.23-.22.31-.35.86-1.38 2.39-4.28 3-6.03.15-.43.21-.88.17-1.33-.2-2.43-.58-5.8-1.15-7.99-.1-.37-.34-.69-.69-.87-.49-.25-1.45-.69-3.64-1.57-.3-.12-.59-.29-.84-.5-1.43-1.21-3.68-3.01-5.07-4.06-.41-.3-.93-.42-1.43-.3-1.02.23-2.31.55-3.04.75-.25.07-.35.07-.6.04-.13-.02-.3-.03-.49-.05l-.27-.02c-.32-.03-.62-.05-.73-.06h-.05c2.39-1.11 4.67-2.07 6.1-2.6M71.05 57.29c-.74 1.22-1.63 2.52-2.3 3.33-.09.11-.2.19-.34.24-.73.27-1.96.69-2.85.96zm-9.8-1.6-.44 3.02-1.49-1.75c.27-.59 1.06-1.14 1.93-1.27m8.02-17.13-.41.5-.07.07c-.36.26-1.87 1.42-2.27 1.74-.12.09-.16.17-.19.32-.09.51-.24 1.48-.29 2.02-.01.16-.08.24-.24.3-.7.28-1.53.58-2.2.85-.14.06-.18.08-.27.14-.07.05-.96.85-.96.85s1.94-.48 2.65-.64c.17-.04.24-.03.4.05.15.07.39.16.52.21.2.07.3.07.52.02.8-.18 2.15-.5 2.86-.69.37-.1.58-.2.89-.42.34-.24 1.21-.89 1.21-.89s-.02.11-.03.18a.3.3 0 0 1-.06.13c-.18.21-.49.56-.64.72-.35.36-.56.49-1 .68-2.03.85-5.51 2.17-8.12 3.07a.8.8 0 0 0-.37.24c-.14.14-.32.34-.32.34s2.13.15 2.78.23c.21.02.36.09.52.23.53.46 2.3 2.28 2.83 2.91 0 0-5.02.84-7.35 1.41-.29.07-.43.25-.5.48-.19.68-.65 2.85-.65 2.85s-.16-.05-.39-.18c-.15-.09-.23-.16-.4-.34-.55-.58-1.46-1.7-1.89-2.34-.13-.19-.18-.43-.02-.63.47-.58 1.42-1.64 1.94-2.19.06-.06.13-.16.2-.31.18-.35.41-1.24.49-1.56l.03-.1v-.01l-.01.01-.1.06c-.13.08-.34.21-.43.27-.13.09-.17.12-.23.24-.08.18-.23.46-.35.65-.04.06-.14.16-.19.2-.67.51-1.4 1.06-1.93 1.43-.04.02-.08.01-.11-.02-.07-.07-.35-.39-.4-.46a.34.34 0 0 1-.06-.2c0-.13.01-.37.02-.54.02-.21.07-.3.33-.56.28-.29.59-.6.91-.91.79-.66 2.77-2.28 6.32-4.81.07-.05.13-.1.18-.17.37-.5 1.43-1.88 1.69-2.2.04-.05.08-.09.12-.13.42-.33.62-.47 1.05-.74 1-.6 2.91-1.73 3.99-2.36m21.62-1.12c.15-.03.3 0 .44.06l1.04.5c.1.05.18.14.2.25.14.59.31 1.38.43 2.05.05.28 0 .56-.15.81-.43.75-1.31 2.09-1.8 2.81-.11.16-.12.36-.09.55.22 1.24 1.16 5.55 1.16 5.55l-.59-.53a.8.8 0 0 1-.24-.37c-.42-1.22-1.2-3.77-1.56-5.01-.06-.2-.01-.42.12-.59.61-.74 1.5-1.93 2.02-2.68.15-.21.19-.45.11-.62-.12-.25-.32-.62-.51-.96a.48.48 0 0 0-.24-.2l-.7-.23a.55.55 0 0 0-.38.01c-1.53.56-3.59 1.36-4.85 1.88-.18.08-.26.08-.48.05-.37-.05-1.43-.24-1.95-.34-.09-.02-.14-.12-.09-.21l.62-1.07c.08-.14.22-.25.39-.28 1.97-.47 4.6-.99 7.1-1.43m-22.01 4.92c.09-.01.18.04.22.13.12.29.09.62-.03.89-.05.11-.19.22-.31.25l-.99.22c-.06.01-.11-.03-.11-.1l.09-1.17a.17.17 0 0 1 .15-.15zm11.3-7.49c.11 0 .19.12.13.22l-2.42 4.17c-.13.25-.36.43-.63.51l-4.54 1.42c-.53.16-.97.25-1.52.29-1.01.08-4 .17-4 .17l.07-.14c.03-.07.09-.12.15-.15l1.41-.6a.6.6 0 0 0 .27-.2l2.18-2.69c.12-.14.27-.28.43-.37 1.44-.76 4.01-1.9 5.81-2.5.17-.06.4-.09.58-.09zm-2.43-4.84c5.01-.44 11.78-.56 18.26-.07.37.03.73.11 1.07.26 2.12.89 5.88 2.85 10.07 5.24.18.11.36.23.52.37 1.11.98 3.92 3.85 3.92 3.85l-.88-.17a.85.85 0 0 1-.34-.14c-1.77-1.19-4.36-2.74-6.53-3.84-.26-.13-.54-.21-.82-.24-1.05-.11-2.48-.21-3.41-.25-.46-.02-.77-.1-1.22-.32-.86-.44-2.94-1.38-3.98-1.78-.44-.17-.67-.21-1.11-.2-1.78.03-5.84.16-7.92.28-.07 0-.14 0-.21-.01l-.99-.15c2.8-.48 9.73-1.1 12.6-1.25l-1.17-.39c-.23-.07-.46-.11-.7-.12-.62-.01-2.01-.04-3.8-.04h-.61c-2.72.01-6.22.07-9.45.32-.28.02-.56.09-.82.2-1.3.57-4.49 2.3-7.68 4.07l-.71.39c-.82.46-1.64.92-2.42 1.35 0 0 .4-.51.47-.61.07-.09.09-.1.18-.16.13-.08.57-.37 1.01-.67l.33-.22c.26-.18.5-.34.63-.43.07-.04.11-.08.19-.14.96-.72 2.48-2 3.38-2.8.2-.18.38-.39.52-.62.29-.47.61-.99.81-1.27.17-.24.45-.41.81-.44M56.43 18.51c1.24-.13 1.93.35 1.93 1.61v.69c0 1.28-.69 1.8-1.93 1.93-1.71.18-3.42.37-5.13.58v1.89c-.36.04-.72.09-1.08.13v-6.12c2.07-.26 4.14-.5 6.21-.71m57.4-.2c2.73.27 5.45.57 8.17.91v.99c-1.18-.15-2.35-.29-3.53-.42v5.14l-1.08-.12v-5.14c-1.19-.13-2.37-.25-3.56-.37zm-45.3-.81v.99c-2.24.14-4.49.3-6.73.49v1.51c1.99-.17 3.99-.32 5.98-.45v.99c-1.99.13-3.99.28-5.98.45v1.65c2.24-.19 4.48-.36 6.73-.49v.99c-2.59.16-5.19.36-7.78.59V18.1c2.59-.24 5.18-.44 7.78-.6m34.89 1.68c0-1.37.68-1.66 2.21-1.55 1.35.09 2.69.19 4.04.31 1.33.11 2.21.48 2.21 1.89v2.73c0 1.38-.76 1.62-2.21 1.5-1.35-.11-2.69-.21-4.04-.3-1.47-.1-2.21-.38-2.21-1.84zm-10.43-2.13c2.6.06 5.19.16 7.79.29v.99c-2.24-.11-4.49-.2-6.74-.27v1.51c2 .06 3.99.13 5.99.23v.99c-2-.1-3.99-.17-5.99-.23v1.65c2.25.06 4.49.15 6.74.27v.99c-2.6-.13-5.19-.23-7.79-.29zm-13.52-.01v4.43c0 1.4-.74 1.71-2.22 1.75q-1.935.06-3.87.15c-1.37.06-2.21-.2-2.21-1.59v-4.43l1.05-.05v4.62c0 .28.24.51.56.49 1.69-.08 3.38-.14 5.07-.19.32-.01.53-.25.53-.54v-4.62c.37 0 .73-.01 1.09-.02m25.56 1.54c-.32-.02-.56.2-.56.52v3.03c0 .28.24.58.56.6 1.75.12 3.49.25 5.24.4.28.02.56-.23.56-.51v-3.03c0-.32-.28-.58-.56-.61-1.75-.16-3.49-.29-5.24-.4m-20.9-1.61c1.94-.01 3.87-.01 5.81.02v.99c-2.07-.03-4.14-.03-6.21-.02-.28 0-.56.25-.56.53v3.07c0 .28.28.56.56.56 1.86-.02 3.71-.01 5.57.01v-1.65c-1.08-.01-2.15-.02-3.23-.02v-.99q2.145 0 4.29.03v3.63c-2.01-.03-4.01-.04-6.02-.03-1.47.01-2.22-.24-2.22-1.67v-2.67c-.01-1.34.66-1.78 2.01-1.79m-27.3 2.49h-.08c-1.82.19-3.63.39-5.45.62v2.25c1.81-.22 3.63-.43 5.45-.61.28-.03.56-.28.56-.55v-1.24c0-.28-.28-.49-.56-.46z" style="fill-rule:evenodd;clip-rule:evenodd;fill:#1d1d1b"/></svg>