<svg xmlns="http://www.w3.org/2000/svg" width="220.417" height="220.256" viewBox="0 0 220.417 220.256"><path d="m86.161 49 46.927 31.517c9.723 6.53 19.678 12.91 36.83 12.91 26.7 0 50.48-19.403 50.48-19.403L110.183 0S98.156 13.223 60.411 36.732C20.781 61.417 0 68.585 0 68.585L142.248 164.2l-9.352 6.125-45.634-30.65c-9.676-6.498-19.668-12.903-36.822-12.903-26.699 0-50.43 19.456-50.43 19.456l110.222 74.028s12.028-13.224 49.773-36.733c39.63-24.685 60.412-31.853 60.412-31.853L76.822 55.133Z" class="st0" style="fill:#de0039;stroke-width:7.98271"/></svg>