<svg xmlns="http://www.w3.org/2000/svg" viewBox="0 0 60 39"><path d="M30 .27C13.586.27.277 8.879.277 19.496.277 30.117 13.586 38.73 30 38.73s29.723-8.609 29.723-19.234S46.414.27 30 .27m0 30.207c-2.441 0-4.434-4.809-4.559-10.86a52 52 0 0 0 9.118 0c-.125 6.047-2.118 10.86-4.559 10.86m-4.258-15.664C26.406 10.535 28.062 7.5 30 7.5s3.594 3.035 4.258 7.313a48 48 0 0 1-8.516 0M30 3.05c-3.187 0-5.906 4.773-6.91 11.437-6.043-.941-10.262-3.09-10.262-5.586 0-3.367 7.688-6.097 17.172-6.097s17.172 2.73 17.172 6.097c0 2.496-4.219 4.645-10.262 5.586C35.906 7.824 33.188 3.051 30 3.051M4.54 18.777c0-3.257 1.253-6.316 3.437-8.941q-.038.277-.04.559c0 4.105 6.157 7.605 14.747 8.894q-.01.447-.008.898c0 7.653 2.144 14.133 5.11 16.333-13.028-.786-23.247-8.43-23.247-17.743M32.214 36.52c2.965-2.2 5.11-8.68 5.11-16.333q-.002-.454-.009-.898c8.586-1.289 14.746-4.785 14.746-8.894q-.002-.282-.039-.56c2.184 2.634 3.438 5.685 3.438 8.942 0 9.313-10.219 16.957-23.246 17.743m0 0" style="stroke:none;fill-rule:nonzero;fill:#282830;fill-opacity:1"/></svg>